<svg xmlns="http://www.w3.org/2000/svg" width="412.064" height="254.279" viewBox="0 0 412.064 254.279"><defs><style>.a{fill:#f2f2f2;}.b{fill:#3f3d56;}.c,.e{fill:#0aabdc;}.c{opacity:0.3;}.d{fill:#2f2e41;}.f{fill:#ffb8b8;}.g{opacity:0.1;}.h{fill:#d0cde1;}</style></defs><g transform="translate(0 0.001)"><rect class="a" width="311.933" height="15.832" transform="translate(143.708 -0.002) rotate(30.649)"/><rect class="a" width="311.933" height="15.832" transform="translate(85.381 13.33) rotate(30.649)"/><rect class="a" width="311.933" height="15.832" transform="translate(33.721 27.912) rotate(30.649)"/><circle class="b" cx="84.019" cy="84.019" r="84.019" transform="translate(153.25 18.367)"/><path class="c" d="M654,385.469a14.977,14.977,0,1,1,14.977-14.977A14.977,14.977,0,0,1,654,385.469Zm0-29.224a14.247,14.247,0,1,0,14.247,14.247A14.247,14.247,0,0,0,654,356.245Z" transform="translate(-416.734 -267.741)"/><path class="c" d="M635.078,380.06a28.493,28.493,0,1,1,28.494-28.493,28.493,28.493,0,0,1-28.494,28.493Zm0-56.256a27.763,27.763,0,1,0,27.763,27.763A27.763,27.763,0,0,0,635.078,323.8Z" transform="translate(-397.808 -248.815)"/><path class="c" d="M618.709,375.381A40.183,40.183,0,1,1,658.892,335.2,40.183,40.183,0,0,1,618.709,375.381Zm0-79.636A39.452,39.452,0,1,0,658.161,335.2,39.452,39.452,0,0,0,618.709,295.745Z" transform="translate(-381.439 -232.446)"/><path class="c" d="M597.225,369.239a55.526,55.526,0,1,1,55.526-55.526A55.589,55.589,0,0,1,597.225,369.239Zm0-110.321a54.8,54.8,0,1,0,54.8,54.8,54.857,54.857,0,0,0-54.8-54.8Z" transform="translate(-359.955 -210.962)"/><path class="c" d="M579.322,364.122a68.311,68.311,0,1,1,68.311-68.311A68.388,68.388,0,0,1,579.322,364.122Zm0-135.892A67.581,67.581,0,1,0,646.9,295.811a67.657,67.657,0,0,0-67.581-67.581Z" transform="translate(-342.052 -193.06)"/><circle class="c" cx="6.941" cy="6.941" r="6.941" transform="translate(230.329 95.445)"/><circle class="c" cx="6.941" cy="6.941" r="6.941" transform="translate(248.229 115.537)"/><circle class="c" cx="6.941" cy="6.941" r="6.941" transform="translate(199.644 112.615)"/><circle class="d" cx="3.288" cy="3.288" r="3.288" transform="translate(233.982 99.098)"/><circle class="d" cx="3.288" cy="3.288" r="3.288" transform="translate(203.297 116.268)"/><circle class="d" cx="3.288" cy="3.288" r="3.288" transform="translate(251.882 119.555)"/><circle class="e" cx="3.288" cy="3.288" r="3.288" transform="translate(387.408 62.203)"/><path class="d" d="M568.926,193.508h-.731V155.882H713.22v.731H568.926Z" transform="translate(-331.474 -90.939)"/><path class="d" d="M1029.94,298.228a9.5,9.5,0,1,1,9.5-9.5,9.5,9.5,0,0,1-9.5,9.5Zm0-18.265a8.767,8.767,0,1,0,8.767,8.767,8.767,8.767,0,0,0-8.767-8.767Z" transform="translate(-639.245 -223.239)"/><circle class="e" cx="3.288" cy="3.288" r="3.288" transform="translate(365.49 156.816)"/><path class="d" d="M977.331,525.324a9.5,9.5,0,1,1,9.5-9.5A9.5,9.5,0,0,1,977.331,525.324Zm0-18.265a8.767,8.767,0,1,0,8.767,8.767A8.767,8.767,0,0,0,977.331,507.059Z" transform="translate(-608.554 -355.723)"/><circle class="e" cx="3.288" cy="3.288" r="3.288" transform="translate(101.378 77.546)"/><path class="d" d="M343.391,335.054a9.5,9.5,0,1,1,9.5-9.5A9.5,9.5,0,0,1,343.391,335.054Zm0-18.265a8.767,8.767,0,1,0,8.767,8.767A8.767,8.767,0,0,0,343.391,316.789Z" transform="translate(-238.725 -244.723)"/><path class="d" d="M366.289,232.234h-.731v-36.9l-92.427-1.456.011-.73,93.146,1.467Z" transform="translate(-159.34 -112.679)"/><path class="d" d="M716.439,332.484H611.6V294.858h.731v36.9h104.11Z" transform="translate(-356.794 -172.015)"/><rect class="d" width="40.183" height="2.557" transform="translate(370.604 82.66)"/><rect class="d" width="40.183" height="2.557" transform="translate(370.604 89.966)"/><rect class="d" width="40.183" height="2.557" transform="translate(370.604 97.272)"/><rect class="d" width="40.183" height="2.557" transform="translate(348.686 177.273)"/><rect class="d" width="40.183" height="2.557" transform="translate(348.686 184.578)"/><rect class="d" width="40.183" height="2.557" transform="translate(348.686 191.885)"/><rect class="d" width="40.183" height="2.557" transform="translate(84.574 98.368)"/><rect class="d" width="40.183" height="2.557" transform="translate(84.574 105.674)"/><rect class="d" width="40.183" height="2.557" transform="translate(84.574 112.98)"/><ellipse class="a" cx="80.001" cy="2.557" rx="80.001" ry="2.557" transform="translate(160.556 237.185)"/><rect class="d" width="269.97" height="0.833" transform="translate(0 253.444)"/><path class="f" d="M179.456,322.977s3.824,10.884,1.471,12.558,7.942,15.349,7.942,15.349l12.354-3.349-6.766-11.442s-.882-11.442-.882-13.116S179.456,322.977,179.456,322.977Z" transform="translate(-148.63 -248.325)"/><path class="g" d="M179.456,322.977s3.824,10.884,1.471,12.558,7.942,15.349,7.942,15.349l12.354-3.349-6.766-11.442s-.882-11.442-.882-13.116S179.456,322.977,179.456,322.977Z" transform="translate(-148.63 -248.325)"/><path class="d" d="M163.355,498.707s-1.116,13.953,0,21.209,2.791,27.349,2.791,27.349,0,37.953,6.139,38.511,10.6,1.116,11.163-1.116-2.791-3.349-1.116-4.465,2.233-5.023,0-9.488,0-49.674,0-49.674l10.6,28.465s1.116,23.442,2.233,26.791-1.116,9.488,2.791,10.047,8.372-2.791,10.6-3.907-3.349-1.116-2.233-1.674,4.465-2.233,3.349-2.791-2.233-27.349-2.233-27.349-3.07-57.209-6.977-59.442-6.419,1.613-6.419,1.613Z" transform="translate(-138.948 -346.474)"/><path class="d" d="M185.038,713.865v4.465s-5.023,12.137,0,12.137,8.93,1.258,8.93-.417v-15.07Z" transform="translate(-150.584 -476.795)"/><path class="d" d="M254.7,713.846v4.465s5.023,12.138,0,12.138-8.93,1.258-8.93-.417v-15.07Z" transform="translate(-187.316 -476.784)"/><circle class="f" cx="10.046" cy="10.046" r="10.046" transform="translate(28.594 62.652)"/><path class="h" d="M189.28,364.209s2.791,8.372,7.256,6.7L201,369.232l7.814,53.581s-6.139,8.93-15.07,3.349S189.28,364.209,189.28,364.209Z" transform="translate(-153.71 -272.813)"/><path class="b" d="M209.6,352.765l2.512-5.3s14.791,6.977,17.023,9.209a8.717,8.717,0,0,1,2.233,5.581l-3.907,13.953s1.116,30.7,1.116,31.814,3.907,7.256,1.116,5.023-3.349-4.465-5.581-1.116-7.256,7.256-7.256,7.256Z" transform="translate(-166.215 -263.044)"/><path class="f" d="M242.749,456.647l-1.674,15.628s-10.046,8.93-7.814,9.488a3.089,3.089,0,0,0,3.349-1.674s3.907,3.907,6.14,1.674,7.814-23.442,7.814-23.442Z" transform="translate(-179.829 -326.74)"/><path class="d" d="M182.4,285.2c-2.227-.08-4.611-.119-6.488,1.081a9.5,9.5,0,0,0-2.242,2.2c-1.829,2.312-3.409,5.221-2.73,8.09l.789-.308a5.166,5.166,0,0,1-.5,2.214c.111-.323.483.2.384.526l-.869,2.852a2.685,2.685,0,0,1,3.424,2.043c.1-3.312.443-7.11,3.13-9.049a10.825,10.825,0,0,1,4.719-1.542,9.494,9.494,0,0,1,4.575.023c1.458.5,2.7,1.992,2.369,3.5a1.558,1.558,0,0,1,1.756.865,4.546,4.546,0,0,1,.36,2.081c.717.506,1.532-.5,1.824-1.326a11.975,11.975,0,0,0,.925-6.036c-.369-2.026-2.02-3.962-4.08-3.969a1.43,1.43,0,0,0,.372-1.007l-1.7-.143a1.876,1.876,0,0,0,1.121-.591C188.865,287.448,183.507,285.242,182.4,285.2Z" transform="translate(-143.55 -226.702)"/><path class="b" d="M165.475,350.3s-4.544-4.452-6.179-4.18-3.868,4.18-3.868,4.18-13.4,4.465-12.837,8.93,6.7,26.232,6.7,26.232,5.023,26.232.558,29.023,21.209,10.046,21.767,6.7,1.674-36.837,0-41.86S165.475,350.3,165.475,350.3Z" transform="translate(-127.114 -262.254)"/><path class="f" d="M154.672,461.766l7.814,3.349s15.07,2.233,15.07-3.907-15.07-2.791-15.07-2.791l-5.024-1.606Z" transform="translate(-134.171 -326.835)"/><path class="b" d="M244.43,377.606h6.9s4.819,21.209,5.378,23.442,1.674,12.837,1.116,12.837-11.721-2.232-11.721-.558Z" transform="translate(-186.534 -280.629)"/><path class="b" d="M141.581,369.568l-6.7,1.674-5.023,29.581s-1.674,7.814,1.116,8.372,10.6,5.023,10.6,5.023,1.116-8.372,3.349-8.372l-5.581-4.465,3.349-19.535Z" transform="translate(-119.406 -275.939)"/><path class="b" d="M599.3,699H588.465V688.168H599.3Zm-10-.833h9.166V689H589.3Z" transform="translate(-387.238 -461.804)"/><circle class="e" cx="4.166" cy="4.166" r="4.166" transform="translate(214.559 228.863)"/></g></svg>