<svg xmlns="http://www.w3.org/2000/svg" width="376.605" height="259.426" viewBox="0 0 376.605 259.426"><defs><style>.a{fill:#3f3d56;}.b{fill:#ffb9b9;}.c{fill:#2f2e41;}.d{fill:#575a89;}.e{fill:#f2f2f2;}.f{fill:#0aabdc;}.g{fill:#dee3f3;opacity:0.5;}.h{opacity:0.1;}.i{opacity:0.3;}.j{fill:#ffd037;}</style></defs><g transform="translate(-1532 -5030)"><rect class="a" width="8.517" height="11.072" transform="translate(1564.516 5103.596)"/><rect class="a" width="8.517" height="11.072" transform="translate(1840.737 5034.82) rotate(90)"/><path class="b" d="M396.7,579.457l-1.17,15.2,11.306,1.17L404.1,577.508Z" transform="translate(1290.676 4677.642)"/><path class="c" d="M346.406,343.485h0c9.637,2.97,14.778,14.047,11.482,24.742L353.7,381.816l-4.179-1.288-.868-5.78-.947,5.221-26.862-8.278-.789-5.255-.861,4.746-3.024-.932,3.288-10.669C323.251,347.274,335.316,340.068,346.406,343.485Z" transform="translate(1301.574 4775.153)"/><path class="b" d="M343.8,449.291a6.328,6.328,0,0,0-7.35,5.821c-.168,2.356.645,5.114,4.3,7.156,7.8,4.363,24.716,13.874,24.716,13.874l32.274,6.2s16.309,13.014,18.353,5.612-15.476-11.921-15.476-11.921l-29.651-7.6-18.893-13.666S348.6,450.14,343.8,449.291Z" transform="translate(1289.216 4710.131)"/><path class="b" d="M232.636,406.054l3.244,9.142,19.464-4.719L250.33,403.7Z" transform="translate(1390.061 4783.691)"/><path class="b" d="M76.049,612.247,61.3,610.773l10.322-10.027L79,605.759Z" transform="translate(1494.597 4663.464)"/><circle class="b" cx="12.11" cy="12.11" r="12.11" transform="translate(1632.461 5125.013)"/><path class="b" d="M330.13,397.1s-6.783,7.962-10.322,9.142S307.422,418.627,311.846,426s20.643-1.769,20.643-1.769l-.59-7.373s6.783-11.8,8.257-12.681S330.13,397.1,330.13,397.1Z" transform="translate(1304.953 4741.923)"/><path class="d" d="M328.656,426.672c-4.509-6.789-14.968-5.574-17.562,2.152q-.069.206-.133.42c-2.359,7.962,1.18,21.528,1.18,21.528l5.308,15.925s13.861-6.488,23.887,4.424l-1.474-11.206s4.129-9.437-1.18-16.22C335.3,439.377,332.164,431.955,328.656,426.672Z" transform="translate(1305.248 4726.588)"/><path class="c" d="M128.393,713.656l-.59,4.424s-19.464-3.834-23.593-.295-4.129,5.9-7.373,3.539c-1.379-1-.2-3.444,1.61-5.919a29.8,29.8,0,0,1,10.981-9.118c4.867-2.383,11.591-5.845,11.591-6.786,0-1.475,5.308-5.9,7.373-3.539a87.809,87.809,0,0,1,5.9,8.847Z" transform="translate(1435.765 4559.991)"/><path class="c" d="M485.248,720.968s-4.323,15.326-2.751,16.112,4.716,3.144,9.431,3.144c2.786,0,6.945,1.509,9.881,2.744a23.818,23.818,0,0,0,10.857,1.868c2.475-.17,4.58-.751,4.413-2.254-.393-3.537-7.859-4.323-7.859-4.323l-7.859-10.218s-1.375-6.484-2.554-6.484a2.582,2.582,0,0,1-1.768-.589Z" transform="translate(1200.303 4544.319)"/><path class="c" d="M348.837,351.683a9.576,9.576,0,0,1,8.356-1.46l.343.106c6.605,2.035,10.118,9.663,7.846,17.036h0l-2.213-.682.481-2.831-1.362,2.559-13.127-4.045-.39-2.641-.434,2.386-2.582-.8q-4.574,8.42-.338,19.554l-4.4-1.356-.781-5.281-.869,4.773-8.386-2.584,1.613-11.1C335.037,357.4,341.716,352.092,348.837,351.683Z" transform="translate(1292.539 4770.761)"/><rect class="e" width="100.195" height="187.525" transform="translate(1695.591 5050.663)"/><path class="a" d="M639.6,326.037H514.844V117.459H639.6Zm-123.977-.78h123.2V118.239h-123.2Z" transform="translate(1180.357 4912.541)"/><rect class="a" width="336.639" height="0.874" transform="translate(1549.162 5288.418)"/><path class="a" d="M648.191,263.009H553.844v-86.55h94.347Zm-93.568-.78h92.788V177.239H554.624Z" transform="translate(1156.562 4876.543)"/><path class="a" d="M458.452,129.187l-.551-.551,29.4-29.4L504.571,116.5l46.7-46.7.551.551L504.571,117.6l-17.265-17.265Z" transform="translate(1252.619 4987.417)"/><circle class="f" cx="5.848" cy="5.848" r="5.848" transform="translate(1734.188 5081.462)"/><circle class="f" cx="5.848" cy="5.848" r="5.848" transform="translate(1751.731 5097.447)"/><circle class="f" cx="5.848" cy="5.848" r="5.848" transform="translate(1798.515 5051.442)"/><rect class="a" width="70.955" height="7.018" transform="translate(1722.102 5163.724)"/><path class="a" d="M569.357,439.749H536.608V407H558.83v.78H537.388v31.189h31.189V423.374h.78Z" transform="translate(1204.597 4781.675)"/><path class="f" d="M567.335,427.346l-6.927-9.236,2.5-1.871,4.769,6.359L589.6,400.672l2.205,2.205Z" transform="translate(1190.076 4785.536)"/><path class="c" d="M268.216,540.739s-7.078-9.437-21.528-3.834l-2.654,7.373s-15.335,12.091-6.783,30.67l-.59,27.721-2.359,7.963-42.762-3.539-1.475,13.566,7.668.59s43.351,17.1,50.134,6.488,20.939-52.493,20.939-52.493l36.718,5.5s-1.075,11.491.1,12.966.59,7.667,1.18,8.847.1,4.246.1,4.246l12.183-.4v-5.9s1.475-7.962,1.475-10.027,8.847-29.2-6.488-31.555-41.732-6.678-41.732-6.678Z" transform="translate(1378.516 4657.707)"/><path class="b" d="M332.2,424.024a7.311,7.311,0,0,0-10.128-3.841c-2.436,1.229-4.69,3.67-4.552,8.5.295,10.322.885,32.735.885,32.735L331.376,497.1s-3.244,23.887,5.308,21.528,2.654-22.413,2.654-22.413l-10.027-33.914,2.359-26.836S334.2,429.3,332.2,424.024Z" transform="translate(1300.758 4728.326)"/><g transform="translate(1790.385 5131.582)"><path class="g" d="M851.365,93.551h-1.213a.849.849,0,0,0,0-1.7h-9.827a.849.849,0,1,0,0,1.7h1.213a.849.849,0,1,0,0,1.7h-1.7a.849.849,0,1,0,0,1.7h9.827a.849.849,0,1,0,0-1.7h1.7a.849.849,0,1,0,0-1.7Z" transform="translate(-736.793 -88.518)"/><path class="g" d="M415.75,79.692h-1.594a1.116,1.116,0,1,0,0-2.232H401.244a1.116,1.116,0,0,0,0,2.232h1.594a1.116,1.116,0,0,0,0,2.232h-2.232a1.116,1.116,0,1,0,0,2.232h12.912a1.116,1.116,0,0,0,0-2.232h2.232a1.116,1.116,0,0,0,0-2.232Z" transform="translate(-399.113 -77.46)"/><rect class="f" width="53.75" height="24.928" rx="12.464" transform="translate(15.238 60.471)"/><rect class="h" width="45.181" height="0.467" transform="translate(19.523 81.573)"/><rect class="i" width="45.181" height="17.138" transform="translate(19.523 64.366)"/><circle class="h" cx="6.232" cy="6.232" r="6.232" transform="translate(23.807 67.061)"/><circle class="h" cx="6.232" cy="6.232" r="6.232" transform="translate(47.956 67.061)"/><rect class="f" width="9.347" height="5.454" transform="translate(37.439 85.398)"/><rect class="f" width="38.949" height="31.159" transform="translate(22.639 89.294)"/><rect class="f" width="40.507" height="3.895" transform="translate(21.86 126.685)"/><path class="f" d="M435.067,589.628v17.917h7.011V584.175h-7.011Z" transform="translate(-406.586 -449.7)"/><path class="f" d="M525.853,584.175v23.369h7.011V584.175Z" transform="translate(-476.339 -449.7)"/><path class="f" d="M415.2,493.155v7.2a10.539,10.539,0,0,0-5.179,2.5,12.251,12.251,0,0,0-3.083,4.521,22.964,22.964,0,0,0-1.518,6.9,39.458,39.458,0,0,0,.431,9.258h-7.79a53.172,53.172,0,0,1,.2-11.173,29.652,29.652,0,0,1,2.5-8.856,17.983,17.983,0,0,1,8.287-8.7A15.306,15.306,0,0,1,415.2,493.155Z" transform="translate(-397.863 -396.85)"/><rect class="i" width="7.011" height="5.453" transform="translate(28.481 134.475)"/><rect class="i" width="7.011" height="7.011" transform="translate(28.481 144.602)"/><rect class="i" width="7.011" height="2.337" transform="translate(28.481 155.508)"/><rect class="i" width="7.011" height="5.453" transform="translate(49.514 134.475)"/><rect class="i" width="7.011" height="7.011" transform="translate(49.514 144.602)"/><rect class="i" width="7.011" height="2.337" transform="translate(49.514 155.508)"/><path class="i" d="M452.293,493.155v7.2a10.539,10.539,0,0,0-5.179,2.5l-.969-8.045A15.305,15.305,0,0,1,452.293,493.155Z" transform="translate(-434.959 -396.85)"/><path class="i" d="M408.257,541.71a22.966,22.966,0,0,0-1.518,6.9l-7.155-1.915a29.652,29.652,0,0,1,2.5-8.856Z" transform="translate(-399.185 -431.183)"/><path class="f" d="M686.6,493.155v7.2a10.539,10.539,0,0,1,5.179,2.5,12.252,12.252,0,0,1,3.083,4.521,22.963,22.963,0,0,1,1.518,6.9,39.459,39.459,0,0,1-.431,9.258h7.79a53.176,53.176,0,0,0-.2-11.173,29.653,29.653,0,0,0-2.5-8.856,17.983,17.983,0,0,0-8.287-8.7A15.306,15.306,0,0,0,686.6,493.155Z" transform="translate(-619.712 -396.85)"/><path class="i" d="M686.6,493.155v7.2a10.539,10.539,0,0,1,5.179,2.5l.969-8.045A15.305,15.305,0,0,0,686.6,493.155Z" transform="translate(-619.712 -396.85)"/><path class="i" d="M722.267,541.71a22.965,22.965,0,0,1,1.518,6.9l7.155-1.915a29.655,29.655,0,0,0-2.5-8.856Z" transform="translate(-647.112 -431.183)"/><rect class="h" width="9.347" height="0.646" transform="translate(37.439 85.398)"/><path class="h" d="M664.291,486.856V499.9a2.718,2.718,0,0,1-.724-1.849V488.7A2.714,2.714,0,0,1,664.291,486.856Z" transform="translate(-602.011 -392.01)"/><path class="h" d="M493.772,485.089v9.766a2.716,2.716,0,0,1-.726,1.652V483.437a2.716,2.716,0,0,1,.726,1.652Z" transform="translate(-470.995 -389.383)"/><rect class="h" width="35.054" height="0.461" transform="translate(24.587 120.454)"/><rect class="h" width="17.137" height="0.358" transform="translate(23.807 130.581)"/><rect class="h" width="17.137" height="0.358" transform="translate(42.504 130.581)"/><rect class="f" width="2.682" height="23.069" transform="translate(25.719 37.402)"/><rect class="f" width="2.682" height="23.069" transform="translate(56.477 37.402)"/><circle class="h" cx="3.04" cy="3.04" r="3.04" transform="translate(23.931 34.541)"/><circle class="f" cx="3.04" cy="3.04" r="3.04" transform="translate(23.931 34.362)"/><circle class="h" cx="3.04" cy="3.04" r="3.04" transform="translate(54.868 34.541)"/><circle class="f" cx="3.04" cy="3.04" r="3.04" transform="translate(54.868 34.362)"/><path class="j" d="M905.074,576.484c0,1.423.16,2.577.357,2.577s.357-1.154.357-2.577-.2-.753-.4-.753S905.074,575.061,905.074,576.484Z" transform="translate(-787.568 -460.175)"/><path class="j" d="M894.039,583.6c1.25.681,2.339,1.093,2.433.92s-.842-.865-2.092-1.546-.757-.185-.851-.012S892.789,582.922,894.039,583.6Z" transform="translate(-778.505 -465.594)"/></g></g></svg>