<svg xmlns="http://www.w3.org/2000/svg" width="351.257" height="230.873" viewBox="0 0 351.257 230.873"><defs><style>.a{fill:#f2f2f2;}.b{fill:#3f3d56;}.c,.g{fill:#0aabdc;}.d{fill:#2f2e41;}.e{fill:#ffb8b8;}.f{fill:#d0cde1;}.g{opacity:0.5;}.h{opacity:0.2;}.i{fill:#fff;}</style></defs><g transform="translate(-880 -1970)"><g transform="translate(880 1970)"><path class="a" d="M607.492,155.578l-63.6,54.158-13.916,11.848-38.941-.238-33.234-.2-2.76-.016-6.744-7.921L421.48,181.717l-13.46-15.81-4.047-4.752-2.928-3.439-6.524-7.663-10.563-12.4,10.7-9.109,10.217-8.7,7.344-6.253,92.472-78.74Z" transform="translate(-266.066 -24.147)"/><rect class="b" width="121.896" height="88.121" transform="translate(29.783 31.295)"/><rect class="b" width="114.834" height="0.614" transform="translate(177.778 213.372)"/><path class="c" d="M954.215,612.342H862.3s-1.863-27.326,9.16-27.636,9.781,12.11,23.6-4.968,30.586-16.147,32.76-6.055-4.192,18.166,7.452,15.681S963.687,593.4,954.215,612.342Z" transform="translate(-606.053 -415.244)"/><path class="a" d="M1006.49,611.986l-.31-.012c.724-17.991,4.491-29.551,7.525-36.08,3.294-7.089,6.468-9.959,6.5-9.987l.206.232c-.031.028-3.168,2.869-6.435,9.911C1010.961,582.551,1007.211,594.063,1006.49,611.986Z" transform="translate(-705.837 -414.882)"/><path class="a" d="M1114.867,670.371l-.3-.087a48.17,48.17,0,0,1,12.127-20.177l.209.23A47.846,47.846,0,0,0,1114.867,670.371Z" transform="translate(-780.946 -473.23)"/><path class="a" d="M891.326,655.006l-.308-.043a33.82,33.82,0,0,0-3.042-19.768,27.217,27.217,0,0,0-4.8-7.005l.215-.224a27.559,27.559,0,0,1,4.864,7.092A34.131,34.131,0,0,1,891.326,655.006Z" transform="translate(-620.6 -457.886)"/><rect class="b" width="338.054" height="0.614" transform="translate(13.203 197.098)"/><rect class="d" width="29.075" height="36.124" transform="translate(222.525 12.102)"/><path class="e" d="M637.592,588.213l-3.965,14.538,6.608,4.846L642,606.275l3.084-14.978Z" transform="translate(-439.076 -407.606)"/><path class="e" d="M805.687,583.909l-1.321,17.621h8.37v-16.3Z" transform="translate(-557.39 -404.624)"/><path class="e" d="M722.583,220.912v10.573l16.3,2.643,14.1-5.727-2.643-6.608Z" transform="translate(-500.719 -153.083)"/><path class="d" d="M707.757,310.15l-14.1-2.643-3.524,28.635-8.811,35.684s-13.216,30.4-11.454,37.446l.881,2.2-.881,3.965,8.811,3.524,3.524-5.727s2.643,3.965,7.049-4.405,22.908-60.354,22.908-60.354l3.084,8.811a18.156,18.156,0,0,0-.44,8.37c.881,4.405,1.762,18.062,1.762,18.062s-4.846,23.789,1.762,25.551l1.322,5.286,9.251.881,1.762-5.286s8.811-3.084,6.608-18.5-3.084-66.081-3.084-66.081l-8.679-21.4Z" transform="translate(-472.677 -233.509)"/><path class="d" d="M628.646,703.587s-2.2-1.762-3.084-1.322S615.43,714.6,615.43,714.6s-9.692,7.489-2.643,8.37,26.432-8.811,26.432-11.013-4.073-7.719-4.073-7.719S632.17,706.671,628.646,703.587Z" transform="translate(-431.452 -509.323)"/><path class="d" d="M826.071,702.227s7.93-.493,9.251.855.881,7.956.881,7.956.881,11.894-6.167,11.894S824.75,715,824.75,715Z" transform="translate(-579.978 -509.285)"/><circle class="e" cx="11.013" cy="11.013" r="11.013" transform="translate(227.151 7.035)"/><path class="e" d="M757.357,155.06s6.167,7.489-6.167,13.216S760,197.792,760,197.792s24.67-9.251,22.467-27.313c0,0-14.978-2.643-11.454-14.978Z" transform="translate(-526.462 -130.183)"/><path class="e" d="M728.249,196.5s-10.132-1.322-10.573,7.049,0,28.635,0,28.635-4.405,17.621-2.2,33.04c0,0-2.643,18.062,4.405,17.181s1.762-18.5,1.762-18.5l3.084-28.635L723.4,214.118l5.727-12.776Z" transform="translate(-503.962 -158.844)"/><path class="e" d="M846.3,203.006s9.607-.184,10.047,6.865-3.084,28.635-3.084,28.635l-5.286,2.643-4.846-14.978Z" transform="translate(-592.847 -163.407)"/><path class="e" d="M844.481,318.143l-.881,2.2,2.643,6.608s-10.573,8.37-9.692,10.132,5.727-2.2,5.727-2.2l7.048,3.524s5.727-6.168,3.084-11.894a66.44,66.44,0,0,1-3.664-9.531S844.922,316.822,844.481,318.143Z" transform="translate(-588.255 -242.384)"/><path class="c" d="M743.4,191.647l-1.322,14.538s-6.167,6.168.881,14.538l-.881,6.608s16.3-.881,19.384,0,12.607-.709,12.607-.709l.168-5.018a22.642,22.642,0,0,0,3.084-15.419c-1.322-9.251,0-12.335,0-12.335l-3.084-.441s-1.982,13.436-15.639,14.758c0,0-16.961,1.542-12.115-16.52Z" transform="translate(-521.094 -155.536)"/><path class="d" d="M736.36,74.245s-11.454-.71-14.1,6.413a26.94,26.94,0,0,1-7.269,10.862,11.692,11.692,0,0,0-3.643,14.107s-11.335,7.617-3.846,14.384c0,0-.44,6.766,3.965,11.4,0,0,3.524,1.781,2.2,2.849s8.811.356,7.93-9.259a23.514,23.514,0,0,1,5.066-16.389s-5.727-12.467-3.084-16.74c1.6-2.595,2.294-4.53,3.626-5.649a16.713,16.713,0,0,0,2.057-2.007,4.745,4.745,0,0,1,5.11-1.594,6.731,6.731,0,0,1,4.846,4.274s2.863,7.657,7.709,11.218-3.745,9.794-3.745,9.794,1.493,7.338,5.372,11.682-1.118,8.131-1.407,8.618c-.661,1.111-3.3,8.129,7.6,8.16a32.1,32.1,0,0,1,6.055-8.516c3.524-3.205.881-12.465.881-12.465s5.286-3.205-.441-11.04c0,0,1.762-7.123-3.084-11.752C758.167,92.588,751.338,71.752,736.36,74.245Z" transform="translate(-497.095 -74.038)"/><ellipse class="e" cx="1.101" cy="1.762" rx="1.101" ry="1.762" transform="translate(225.168 16.066)"/><path class="c" d="M210.239,620.045H28.469S24.785,566,46.585,565.391s19.344,23.949,46.671-9.825,60.487-31.932,64.786-11.975-8.29,35.924,14.738,31.011S228.968,582.585,210.239,620.045Z" transform="translate(-28.162 -389.479)"/><path class="a" d="M313.622,619.341l-.613-.025c1.431-35.579,8.882-58.439,14.881-71.351,6.514-14.02,12.79-19.7,12.853-19.751l.408.459c-.062.055-6.265,5.674-12.727,19.6C322.458,561.13,315.048,583.9,313.622,619.341Z" transform="translate(-225.499 -388.763)"/><path class="a" d="M527.937,734.8l-.589-.172a95.257,95.257,0,0,1,23.983-39.9l.413.455A94.61,94.61,0,0,0,527.937,734.8Z" transform="translate(-374.026 -504.151)"/><path class="a" d="M85.866,704.416l-.608-.084a66.881,66.881,0,0,0-6.016-39.092,53.824,53.824,0,0,0-9.494-13.854l.425-.443a54.5,54.5,0,0,1,9.62,14.025A67.5,67.5,0,0,1,85.866,704.416Z" transform="translate(-56.93 -473.808)"/><rect class="b" width="256.995" height="0.614" transform="translate(0 230.259)"/><path class="b" d="M268,206.182H124V91.962H268Zm-143.389-.614H267.389V92.576H124.614Z" transform="translate(-94.524 -86.459)"/><circle class="c" cx="5.22" cy="5.22" r="5.22" transform="translate(36.845 47.261)"/><circle class="f" cx="5.22" cy="5.22" r="5.22" transform="translate(51.583 47.261)"/><circle class="g" cx="5.22" cy="5.22" r="5.22" transform="translate(66.321 47.261)"/><circle class="a" cx="5.22" cy="5.22" r="5.22" transform="translate(81.059 47.261)"/><rect class="a" width="42.986" height="4.913" transform="translate(101.324 50.025)"/><circle class="a" cx="14.124" cy="14.124" r="14.124" transform="translate(74.304 73.053)"/><path class="c" d="M299.427,319.943l-7.068-7.068a1.228,1.228,0,0,1,1.737-1.737l5.214,5.214,16.637-18.972A1.228,1.228,0,1,1,317.793,299Z" transform="translate(-210.94 -228.514)"/></g><path class="h" d="M871.619,154.776A22.374,22.374,0,0,1,849.2,177.868v1.184q-.959.079-1.937.078a24.355,24.355,0,0,1-24.356-24.355q0-.624.031-1.244h1.075a23.811,23.811,0,0,1,47.6,1.245Z" transform="translate(182.321 1847.964)"/><path class="b" d="M877.194,148.516a24.349,24.349,0,0,1-23.527,24.337c-.271.012-.548.017-.827.017a24.354,24.354,0,1,1,24.354-24.354Z" transform="translate(177.852 1852.98)"/><path class="i" d="M888.562,188.821a17.908,17.908,0,0,1-17.727,1.033l.395-.806a17.136,17.136,0,1,0-9.572-14.841l-.9.027a18.034,18.034,0,1,1,27.8,14.587Z" transform="translate(152.001 1827.767)"/><path class="i" d="M901.1,240.975a27.09,27.09,0,0,1-8.757.571l3.23,2.46-9.042,5.831.486.754,9.041-5.831.909,3.957A27.116,27.116,0,0,1,901.1,240.975Z" transform="translate(131.344 1759.389)"/></g></svg>