<?xml version="1.0" encoding="utf-8"?>
<!-- Generator: Adobe Illustrator 19.0.0, SVG Export Plug-In . SVG Version: 6.00 Build 0)  -->
<svg version="1.1" id="Layer_1" xmlns="http://www.w3.org/2000/svg" xmlns:xlink="http://www.w3.org/1999/xlink" x="0px" y="0px"
	 viewBox="0 0 1198 560" style="enable-background:new 0 0 1198 560;" xml:space="preserve">
<style type="text/css">
	.st0{clip-path:url(#XMLID_3_);}
	.st1{opacity:0.9;}
	.st2{fill:#3E6271;}
	.st3{filter:url(#Adobe_OpacityMaskFilter);}
	.st4{fill:url(#XMLID_5_);}
	.st5{opacity:0.33;mask:url(#XMLID_4_);fill:#3E6271;}
	.st6{filter:url(#Adobe_OpacityMaskFilter_1_);}
	.st7{fill:url(#XMLID_7_);}
	.st8{opacity:0.33;mask:url(#XMLID_6_);fill:#3E6271;}
	.st9{filter:url(#Adobe_OpacityMaskFilter_2_);}
	.st10{fill:url(#XMLID_9_);}
	.st11{opacity:0.33;mask:url(#XMLID_8_);fill:#3E6271;}
	.st12{filter:url(#Adobe_OpacityMaskFilter_3_);}
	.st13{fill:url(#XMLID_13_);}
	.st14{opacity:0.33;mask:url(#XMLID_11_);fill:#3E6271;}
	.st15{filter:url(#Adobe_OpacityMaskFilter_4_);}
	.st16{fill:url(#XMLID_30_);}
	.st17{opacity:0.33;mask:url(#XMLID_14_);fill:url(#XMLID_37_);}
	.st18{fill:#0E3B4E;}
	.st19{filter:url(#Adobe_OpacityMaskFilter_5_);}
	.st20{fill:url(#XMLID_86_);}
	.st21{opacity:0.33;mask:url(#XMLID_85_);fill:url(#XMLID_88_);}
	.st22{filter:url(#Adobe_OpacityMaskFilter_6_);}
	.st23{fill:url(#XMLID_90_);}
	.st24{opacity:0.33;mask:url(#XMLID_89_);fill:#0E3B4E;}
	.st25{clip-path:url(#XMLID_91_);}
	.st26{fill-rule:evenodd;clip-rule:evenodd;fill:#4D4D4D;}
	.st27{fill-rule:evenodd;clip-rule:evenodd;fill:#D4B194;}
	.st28{fill-rule:evenodd;clip-rule:evenodd;fill:#FFD7B7;}
	.st29{fill:url(#XMLID_92_);}
	.st30{fill:url(#XMLID_93_);}
	.st31{fill-rule:evenodd;clip-rule:evenodd;fill:#FFFFFF;stroke:url(#XMLID_94_);stroke-miterlimit:10;}
	.st32{opacity:0.3;clip-path:url(#XMLID_3_);}
	.st33{fill:url(#XMLID_95_);}
	.st34{fill:#00AADA;}
</style>
<g id="XMLID_32_">
	<defs>
		<rect id="XMLID_2_" width="1198" height="560"/>
	</defs>
	<clipPath id="XMLID_3_">
		<use xlink:href="#XMLID_2_"  style="overflow:visible;"/>
	</clipPath>
	<g id="XMLID_16_" class="st0">
		<g id="XMLID_77_" class="st1">
			<g id="XMLID_81_">
				<path id="XMLID_83_" class="st2" d="M1136.8,311.9c7.5,0,13.6-6.1,13.6-13.6c0-7.5-6.1-13.6-13.6-13.6
					c-7.5,0-13.6,6.1-13.6,13.6C1123.2,305.8,1129.3,311.9,1136.8,311.9z"/>
				<path id="XMLID_82_" class="st2" d="M1166.8,354.5c0.1-0.2,0.1-0.5,0-0.8l-6.3-33.2c-0.5-3.1-3.1-5.4-6.3-5.4h-35
					c-3.1,0-5.8,2.3-6.3,5.3l-6.3,33.2c0,0.3,0,0.5,0,0.8c0,0.3-0.1,0.6-0.1,0.9c0,3.5,2.9,6.4,6.4,6.4c3.1,0,5.7-2.2,6.3-5.3
					l3.9-24.7l-0.1,78.8c0,3.5,2.9,6.4,6.4,6.4c3.5,0,6.4-2.9,6.4-6.4v-39h1.5v39c0,3.5,2.9,6.4,6.4,6.4c3.5,0,6.4-2.9,6.4-6.4
					l0-78.7l4,24.7c0.6,3,3.2,5.2,6.3,5.2c3.5,0,6.4-2.9,6.4-6.4C1166.9,355.1,1166.8,354.8,1166.8,354.5z"/>
			</g>
			<defs>
				<filter id="Adobe_OpacityMaskFilter" filterUnits="userSpaceOnUse" x="1102.3" y="413.3" width="69" height="7.5">
					<feColorMatrix  type="matrix" values="1 0 0 0 0  0 1 0 0 0  0 0 1 0 0  0 0 0 1 0"/>
				</filter>
			</defs>
			<mask maskUnits="userSpaceOnUse" x="1102.3" y="413.3" width="69" height="7.5" id="XMLID_4_">
				<g id="XMLID_78_" class="st3">
					
						<radialGradient id="XMLID_5_" cx="1177.9006" cy="1092.4974" r="41.7799" gradientTransform="matrix(0.8262 0 0 8.930000e-002 163.6432 319.4289)" gradientUnits="userSpaceOnUse">
						<stop  offset="0" style="stop-color:#FFFFFF"/>
						<stop  offset="1" style="stop-color:#14130A"/>
					</radialGradient>
					<ellipse id="XMLID_79_" class="st4" cx="1136.8" cy="417" rx="34.5" ry="3.7"/>
				</g>
			</mask>
			<ellipse id="XMLID_80_" class="st5" cx="1136.8" cy="417" rx="34.5" ry="3.7"/>
		</g>
		<g id="XMLID_70_" class="st1">
			<g id="XMLID_74_">
				<path id="XMLID_76_" class="st2" d="M1037.3,311.9c7.5,0,13.6-6.1,13.6-13.6c0-7.5-6.1-13.6-13.6-13.6
					c-7.5,0-13.6,6.1-13.6,13.6C1023.6,305.8,1029.8,311.9,1037.3,311.9z"/>
				<path id="XMLID_75_" class="st2" d="M1067.2,354.5c0.1-0.2,0.1-0.5,0-0.8l-6.3-33.2c-0.5-3.1-3.1-5.4-6.3-5.4h-35
					c-3.1,0-5.8,2.3-6.3,5.3l-6.3,33.2c-0.1,0.3,0,0.5,0,0.8c0,0.3-0.1,0.6-0.1,0.9c0,3.5,2.9,6.4,6.4,6.4c3.1,0,5.7-2.2,6.3-5.3
					l3.9-24.7l-0.1,78.8c0,3.5,2.9,6.4,6.4,6.4c3.5,0,6.4-2.9,6.4-6.4v-39h1.5v39c0,3.5,2.9,6.4,6.4,6.4c3.5,0,6.4-2.9,6.4-6.4
					l0-78.7l4,24.7c0.6,3,3.2,5.2,6.3,5.2c3.5,0,6.4-2.9,6.4-6.4C1067.3,355.1,1067.3,354.8,1067.2,354.5z"/>
			</g>
			<defs>
				<filter id="Adobe_OpacityMaskFilter_1_" filterUnits="userSpaceOnUse" x="1002.8" y="413.3" width="69.1" height="7.5">
					<feColorMatrix  type="matrix" values="1 0 0 0 0  0 1 0 0 0  0 0 1 0 0  0 0 0 1 0"/>
				</filter>
			</defs>
			<mask maskUnits="userSpaceOnUse" x="1002.8" y="413.3" width="69.1" height="7.5" id="XMLID_6_">
				<g id="XMLID_71_" class="st6">
					
						<radialGradient id="XMLID_7_" cx="1057.4121" cy="1092.4974" r="41.7803" gradientTransform="matrix(0.8262 0 0 8.930000e-002 163.6432 319.4289)" gradientUnits="userSpaceOnUse">
						<stop  offset="0" style="stop-color:#FFFFFF"/>
						<stop  offset="1" style="stop-color:#14130A"/>
					</radialGradient>
					<path id="XMLID_72_" class="st7" d="M1071.8,417c0,2.1-15.5,3.7-34.5,3.7c-19.1,0-34.5-1.7-34.5-3.7c0-2.1,15.5-3.7,34.5-3.7
						C1056.3,413.3,1071.8,414.9,1071.8,417z"/>
				</g>
			</mask>
			<path id="XMLID_73_" class="st8" d="M1071.8,417c0,2.1-15.5,3.7-34.5,3.7c-19.1,0-34.5-1.7-34.5-3.7c0-2.1,15.5-3.7,34.5-3.7
				C1056.3,413.3,1071.8,414.9,1071.8,417z"/>
		</g>
		<g id="XMLID_63_" class="st1">
			<g id="XMLID_67_">
				<path id="XMLID_69_" class="st2" d="M931.9,311.9c7.5,0,13.6-6.1,13.6-13.6c0-7.5-6.1-13.6-13.6-13.6c-7.5,0-13.6,6.1-13.6,13.6
					C918.2,305.8,924.3,311.9,931.9,311.9z"/>
				<path id="XMLID_68_" class="st2" d="M961.8,354.5c0.1-0.2,0.1-0.5,0-0.8l-6.3-33.2c-0.5-3.1-3.1-5.4-6.3-5.4h-35
					c-3.1,0-5.8,2.3-6.3,5.3l-6.3,33.2c0,0.3,0,0.5,0,0.8c0,0.3-0.1,0.6-0.1,0.9c0,3.5,2.9,6.4,6.4,6.4c3.1,0,5.7-2.2,6.3-5.3
					l3.9-24.7l-0.1,78.8c0,3.5,2.9,6.4,6.4,6.4c3.5,0,6.4-2.9,6.4-6.4v-39h1.5v39c0,3.5,2.9,6.4,6.4,6.4c3.5,0,6.4-2.9,6.4-6.4
					l-0.1-78.7l4,24.7c0.6,3,3.2,5.2,6.3,5.2c3.5,0,6.4-2.9,6.4-6.4C961.9,355.1,961.9,354.8,961.8,354.5z"/>
			</g>
			<defs>
				<filter id="Adobe_OpacityMaskFilter_2_" filterUnits="userSpaceOnUse" x="897.3" y="413.3" width="69.1" height="7.5">
					<feColorMatrix  type="matrix" values="1 0 0 0 0  0 1 0 0 0  0 0 1 0 0  0 0 0 1 0"/>
				</filter>
			</defs>
			<mask maskUnits="userSpaceOnUse" x="897.3" y="413.3" width="69.1" height="7.5" id="XMLID_8_">
				<g id="XMLID_64_" class="st9">
					
						<radialGradient id="XMLID_9_" cx="929.8297" cy="1092.4974" r="41.7802" gradientTransform="matrix(0.8262 0 0 8.930000e-002 163.6432 319.4289)" gradientUnits="userSpaceOnUse">
						<stop  offset="0" style="stop-color:#FFFFFF"/>
						<stop  offset="1" style="stop-color:#14130A"/>
					</radialGradient>
					<path id="XMLID_65_" class="st10" d="M966.4,417c0,2.1-15.5,3.7-34.5,3.7c-19.1,0-34.5-1.7-34.5-3.7c0-2.1,15.5-3.7,34.5-3.7
						C950.9,413.3,966.4,414.9,966.4,417z"/>
				</g>
			</mask>
			<path id="XMLID_66_" class="st11" d="M966.4,417c0,2.1-15.5,3.7-34.5,3.7c-19.1,0-34.5-1.7-34.5-3.7c0-2.1,15.5-3.7,34.5-3.7
				C950.9,413.3,966.4,414.9,966.4,417z"/>
		</g>
		<g id="XMLID_56_" class="st1">
			<g id="XMLID_60_">
				<path id="XMLID_62_" class="st2" d="M832.3,311.9c7.5,0,13.6-6.1,13.6-13.6c0-7.5-6.1-13.6-13.6-13.6c-7.5,0-13.6,6.1-13.6,13.6
					C818.7,305.8,824.8,311.9,832.3,311.9z"/>
				<path id="XMLID_61_" class="st2" d="M862.3,354.5c0.1-0.2,0.1-0.5,0-0.8l-6.3-33.2c-0.5-3.1-3.1-5.4-6.3-5.4h-35
					c-3.1,0-5.8,2.3-6.3,5.3l-6.3,33.2c-0.1,0.3,0,0.5,0,0.8c0,0.3-0.1,0.6-0.1,0.9c0,3.5,2.9,6.4,6.4,6.4c3.1,0,5.7-2.2,6.3-5.3
					l3.9-24.7l-0.1,78.8c0,3.5,2.9,6.4,6.4,6.4c3.5,0,6.4-2.9,6.4-6.4v-39h1.5v39c0,3.5,2.9,6.4,6.4,6.4c3.5,0,6.4-2.9,6.4-6.4
					l0-78.7l4,24.7c0.6,3,3.2,5.2,6.3,5.2c3.5,0,6.4-2.9,6.4-6.4C862.4,355.1,862.3,354.8,862.3,354.5z"/>
			</g>
			<defs>
				<filter id="Adobe_OpacityMaskFilter_3_" filterUnits="userSpaceOnUse" x="797.8" y="413.3" width="69.1" height="7.5">
					<feColorMatrix  type="matrix" values="1 0 0 0 0  0 1 0 0 0  0 0 1 0 0  0 0 0 1 0"/>
				</filter>
			</defs>
			<mask maskUnits="userSpaceOnUse" x="797.8" y="413.3" width="69.1" height="7.5" id="XMLID_11_">
				<g id="XMLID_57_" class="st12">
					
						<radialGradient id="XMLID_13_" cx="809.3408" cy="1092.4974" r="41.7803" gradientTransform="matrix(0.8262 0 0 8.930000e-002 163.6432 319.4289)" gradientUnits="userSpaceOnUse">
						<stop  offset="0" style="stop-color:#FFFFFF"/>
						<stop  offset="1" style="stop-color:#14130A"/>
					</radialGradient>
					<ellipse id="XMLID_58_" class="st13" cx="832.3" cy="417" rx="34.5" ry="3.7"/>
				</g>
			</mask>
			<ellipse id="XMLID_59_" class="st14" cx="832.3" cy="417" rx="34.5" ry="3.7"/>
		</g>
		<defs>
			<filter id="Adobe_OpacityMaskFilter_4_" filterUnits="userSpaceOnUse" x="903.1" y="496.3" width="156.8" height="16.9">
				<feColorMatrix  type="matrix" values="1 0 0 0 0  0 1 0 0 0  0 0 1 0 0  0 0 0 1 0"/>
			</filter>
		</defs>
		<mask maskUnits="userSpaceOnUse" x="903.1" y="496.3" width="156.8" height="16.9" id="XMLID_14_">
			<g id="XMLID_53_" class="st15">
				
					<radialGradient id="XMLID_30_" cx="989.8711" cy="2075.3594" r="94.906" gradientTransform="matrix(0.8262 0 0 8.930000e-002 163.6432 319.4289)" gradientUnits="userSpaceOnUse">
					<stop  offset="0" style="stop-color:#FFFFFF"/>
					<stop  offset="1" style="stop-color:#14130A"/>
				</radialGradient>
				<path id="XMLID_54_" class="st16" d="M1059.9,504.8c0,4.7-35.1,8.5-78.4,8.5c-43.3,0-78.4-3.8-78.4-8.5c0-4.7,35.1-8.5,78.4-8.5
					C1024.8,496.3,1059.9,500.1,1059.9,504.8z"/>
			</g>
		</mask>
		<linearGradient id="XMLID_37_" gradientUnits="userSpaceOnUse" x1="981.4989" y1="513.2111" x2="981.4508" y2="496.4265">
			<stop  offset="0" style="stop-color:#4D4848"/>
			<stop  offset="0.3539" style="stop-color:#14130A"/>
			<stop  offset="1" style="stop-color:#14130A"/>
		</linearGradient>
		<path id="XMLID_55_" class="st17" d="M1059.9,504.8c0,4.7-35.1,8.5-78.4,8.5c-43.3,0-78.4-3.8-78.4-8.5c0-4.7,35.1-8.5,78.4-8.5
			C1024.8,496.3,1059.9,500.1,1059.9,504.8z"/>
		<g id="XMLID_50_">
			<path id="XMLID_52_" class="st18" d="M1074.7,304.1c11.1,0,20.2-9.1,20.2-20.2c0-11.1-9.1-20.2-20.2-20.2
				c-11.1,0-20.2,9.1-20.2,20.2C1054.5,295,1063.6,304.1,1074.7,304.1z"/>
			<path id="XMLID_51_" class="st18" d="M1119.1,367.3c0.1-0.4,0.1-0.8,0.1-1.2l-9.3-49.2c-0.7-4.6-4.7-7.9-9.3-7.9h-51.8
				c-4.6,0-8.6,3.3-9.3,7.9l-9.3,49.2c-0.1,0.4-0.1,0.8,0.1,1.2c-0.1,0.5-0.1,0.9-0.1,1.3c0,5.2,4.2,9.4,9.4,9.4
				c4.6,0,8.5-3.3,9.3-7.8l5.8-36.6l-0.1,116.7c0,5.2,4.2,9.4,9.4,9.4c5.2,0,9.4-4.2,9.4-9.4v-57.7h2.3v57.7c0,5.2,4.2,9.4,9.4,9.4
				c5.2,0,9.4-4.2,9.4-9.4l-0.1-116.7l5.9,36.6c0.8,4.5,4.7,7.7,9.3,7.7c5.2,0,9.4-4.2,9.4-9.4
				C1119.3,368.1,1119.2,367.7,1119.1,367.3z"/>
		</g>
		<defs>
			<filter id="Adobe_OpacityMaskFilter_5_" filterUnits="userSpaceOnUse" x="1023.6" y="454.3" width="102.3" height="11.1">
				<feColorMatrix  type="matrix" values="1 0 0 0 0  0 1 0 0 0  0 0 1 0 0  0 0 0 1 0"/>
			</filter>
		</defs>
		<mask maskUnits="userSpaceOnUse" x="1023.6" y="454.3" width="102.3" height="11.1" id="XMLID_85_">
			<g id="XMLID_47_" class="st19">
				
					<radialGradient id="XMLID_86_" cx="1102.7687" cy="1571.7228" r="61.8989" gradientTransform="matrix(0.8262 0 0 8.930000e-002 163.6432 319.4289)" gradientUnits="userSpaceOnUse">
					<stop  offset="0" style="stop-color:#FFFFFF"/>
					<stop  offset="1" style="stop-color:#14130A"/>
				</radialGradient>
				<path id="XMLID_48_" class="st20" d="M1125.9,459.8c0,3.1-22.9,5.5-51.1,5.5c-28.3,0-51.2-2.5-51.2-5.5c0-3.1,22.9-5.5,51.2-5.5
					C1103,454.3,1125.9,456.7,1125.9,459.8z"/>
			</g>
		</mask>
		<linearGradient id="XMLID_88_" gradientUnits="userSpaceOnUse" x1="1174.2554" y1="409.4469" x2="1087.4579" y2="453.3564">
			<stop  offset="0" style="stop-color:#4D4848"/>
			<stop  offset="0.3539" style="stop-color:#14130A"/>
			<stop  offset="1" style="stop-color:#14130A"/>
		</linearGradient>
		<path id="XMLID_49_" class="st21" d="M1125.9,459.8c0,3.1-22.9,5.5-51.1,5.5c-28.3,0-51.2-2.5-51.2-5.5c0-3.1,22.9-5.5,51.2-5.5
			C1103,454.3,1125.9,456.7,1125.9,459.8z"/>
		<g id="XMLID_40_">
			<g id="XMLID_44_">
				<path id="XMLID_46_" class="st18" d="M892.1,304.1c11.1,0,20.2-9.1,20.2-20.2c0-11.1-9.1-20.2-20.2-20.2
					c-11.1,0-20.2,9.1-20.2,20.2C871.9,295,881,304.1,892.1,304.1z"/>
				<path id="XMLID_45_" class="st18" d="M936.5,367.3c0.1-0.4,0.1-0.8,0.1-1.2l-9.3-49.2c-0.7-4.6-4.7-7.9-9.3-7.9h-51.8
					c-4.6,0-8.6,3.3-9.3,7.9l-9.3,49.2c-0.1,0.4-0.1,0.8,0.1,1.2c-0.1,0.5-0.1,0.9-0.1,1.3c0,5.2,4.2,9.4,9.4,9.4
					c4.6,0,8.4-3.3,9.3-7.8l5.8-36.6l-0.1,116.7c0,5.2,4.2,9.4,9.4,9.4c5.2,0,9.4-4.2,9.4-9.4v-57.7h2.3v57.7c0,5.2,4.2,9.4,9.4,9.4
					c5.2,0,9.4-4.2,9.4-9.4l-0.1-116.7l5.9,36.6c0.8,4.5,4.7,7.7,9.3,7.7c5.2,0,9.4-4.2,9.4-9.4
					C936.7,368.1,936.6,367.7,936.5,367.3z"/>
			</g>
			<defs>
				<filter id="Adobe_OpacityMaskFilter_6_" filterUnits="userSpaceOnUse" x="841" y="454.3" width="102.3" height="11.1">
					<feColorMatrix  type="matrix" values="1 0 0 0 0  0 1 0 0 0  0 0 1 0 0  0 0 0 1 0"/>
				</filter>
			</defs>
			<mask maskUnits="userSpaceOnUse" x="841" y="454.3" width="102.3" height="11.1" id="XMLID_89_">
				<g id="XMLID_41_" class="st22">
					
						<radialGradient id="XMLID_90_" cx="881.7537" cy="1571.7228" r="61.8988" gradientTransform="matrix(0.8262 0 0 8.930000e-002 163.6432 319.4289)" gradientUnits="userSpaceOnUse">
						<stop  offset="0" style="stop-color:#FFFFFF"/>
						<stop  offset="1" style="stop-color:#14130A"/>
					</radialGradient>
					<path id="XMLID_42_" class="st23" d="M943.3,459.8c0,3.1-22.9,5.5-51.1,5.5c-28.3,0-51.2-2.5-51.2-5.5c0-3.1,22.9-5.5,51.2-5.5
						C920.4,454.3,943.3,456.7,943.3,459.8z"/>
				</g>
			</mask>
			<path id="XMLID_43_" class="st24" d="M943.3,459.8c0,3.1-22.9,5.5-51.1,5.5c-28.3,0-51.2-2.5-51.2-5.5c0-3.1,22.9-5.5,51.2-5.5
				C920.4,454.3,943.3,456.7,943.3,459.8z"/>
		</g>
		<g id="XMLID_17_">
			<defs>
				<rect id="XMLID_18_" x="902" y="57" width="378" height="394"/>
			</defs>
			<clipPath id="XMLID_91_">
				<use xlink:href="#XMLID_18_"  style="overflow:visible;"/>
			</clipPath>
			<g id="XMLID_19_" class="st25">
				<polygon id="XMLID_36_" class="st26" points="1333.1,163.5 1332.3,97.6 1108.3,102.6 1109.1,168.4 				"/>
				<path id="XMLID_35_" class="st27" d="M992.9,188.6L992.9,188.6c-5.1-0.3-9.1-4.8-8.6-9.8l4.8-48c0.5-5,4.7-8.9,9.8-8.6l0,0
					c5.1,0.3,8.9,4.7,8.6,9.8l-4.8,48C1002.2,185.1,997.9,189,992.9,188.6z"/>
				<path id="XMLID_34_" class="st27" d="M1016.7,186.2L1016.7,186.2c-5,0.5-9.7-3.3-10-8.3l-2.9-48.2c-0.3-5,3.3-9.6,8.3-10l0,0
					c5-0.5,9.5,3.3,10,8.3l2.9,48.2C1025.3,181.2,1021.8,185.7,1016.7,186.2z"/>
				<polygon id="XMLID_33_" class="st27" points="1071.9,123.4 1015.7,103.2 983.5,138.6 984.7,169.6 1060.2,153 				"/>
				<path id="XMLID_31_" class="st27" d="M1037,178.5L1037,178.5c-4.7,1.8-10.2-0.5-11.9-5.3l-15.9-45.5c-1.7-4.8,0.6-10.1,5.3-11.9
					l0,0c4.7-1.8,10.1,0.6,11.9,5.3l15.9,45.5C1043.9,171.4,1041.7,176.7,1037,178.5z"/>
				<path id="XMLID_29_" class="st28" d="M1081.6,125.4L1081.6,125.4c-0.9,5-6,9.4-10.6,7.5l-57.3-22.7c-4.7-1.9-8.4-5.7-7.5-10.6
					l0,0c0.9-5,5.7-8.4,10.6-7.5l57.3,22.7C1078.8,116.6,1082.4,120.4,1081.6,125.4z"/>
				<path id="XMLID_28_" class="st28" d="M978.7,134.8L978.7,134.8c-3.3-3.8-2.8-9.6,0.9-13l29-27.1c3.7-3.5,9.7-2.9,13,0.9l0,0
					c3.3,3.8,2.9,9.7-0.9,13l-29,27.1C988,139.2,982,138.6,978.7,134.8z"/>
				<path id="XMLID_27_" class="st28" d="M973.3,186.6L973.3,186.6c-5-0.9-8.5-5.7-7.5-10.7l9.9-47.2c1-4.9,5.7-8.4,10.7-7.5l0,0
					c5,0.9,8.3,5.7,7.5,10.7l-9.9,47.2C982.9,184.1,978.2,187.5,973.3,186.6z"/>
				<path id="XMLID_26_" class="st28" d="M1009,120.4c8.5,2,42.2,10.7,27.9,27.4c-14.3,16.7,39.3-2.3,39.3-2.3l-16.9-31.8
					C1059.3,113.7,1029.7,97.5,1009,120.4z"/>
				<polygon id="XMLID_25_" class="st28" points="1060.8,113.9 1067.4,160.2 1096.3,160.5 1094.8,113.6 				"/>
				<g id="XMLID_22_">
					<linearGradient id="XMLID_92_" gradientUnits="userSpaceOnUse" x1="941.7352" y1="265.5873" x2="846.7352" y2="435.5873">
						<stop  offset="0" style="stop-color:#00AADA"/>
						<stop  offset="1" style="stop-color:#144B97"/>
					</linearGradient>
					<path id="XMLID_24_" class="st29" d="M983.6,218.2c15.2,0,27.6-12.4,27.6-27.6c0-15.2-12.4-27.6-27.6-27.6
						c-15.2,0-27.6,12.4-27.6,27.6C956,205.8,968.4,218.2,983.6,218.2z"/>
					<linearGradient id="XMLID_93_" gradientUnits="userSpaceOnUse" x1="992.2431" y1="293.8123" x2="897.2431" y2="463.8123">
						<stop  offset="0" style="stop-color:#00AADA"/>
						<stop  offset="1" style="stop-color:#144B97"/>
					</linearGradient>
					<path id="XMLID_23_" class="st30" d="M1044.3,304.5c0.2-0.5,0.2-1,0.1-1.6l-12.7-67.2c-1-6.3-6.4-10.8-12.7-10.8h-70.8
						c-6.3,0-11.7,4.6-12.7,10.8l-12.7,67.3c-0.1,0.5-0.1,1.1,0.1,1.6c-0.1,0.6-0.1,1.2-0.1,1.8c0,7.1,5.8,12.9,12.9,12.9
						c6.2,0,11.5-4.4,12.7-10.6l8-50l-0.1,159.4c0,7.1,5.8,12.9,12.9,12.9c7.1,0,12.9-5.8,12.9-12.9v-78.9h3.1v78.9
						c0,7.1,5.8,12.9,12.9,12.9c7.1,0,12.9-5.8,12.9-12.9l-0.1-159.4l8,50c1.1,6.1,6.5,10.6,12.7,10.6c7.1,0,12.9-5.8,12.9-12.9
						C1044.5,305.7,1044.4,305.1,1044.3,304.5z"/>
				</g>
				<path id="XMLID_21_" class="st28" d="M1057.3,121.5c15.3-11.6,40.1,5.1,42.9,18.6c2.8,13.5-9.1,30.8-28.4,31.7
					c-21.8,0.9-18.8-7-41.6-0.2L995.6,182c-5.7,1.7-11.8-0.7-13.9-6.3l0,0c-2.1-5.6,0.7-11.8,6.3-13.9l50.3-15.1
					C1041.4,138.6,1047.8,128.8,1057.3,121.5z"/>
				<linearGradient id="XMLID_94_" gradientUnits="userSpaceOnUse" x1="1089.426" y1="138.675" x2="1110.2429" y2="138.675">
					<stop  offset="0" style="stop-color:#FFFFFF"/>
					<stop  offset="1" style="stop-color:#999999"/>
				</linearGradient>
				
					<rect id="XMLID_20_" x="1069.9" y="129.4" transform="matrix(-2.226347e-002 -0.9998 0.9998 -2.226347e-002 985.6807 1241.3236)" class="st31" width="59.8" height="18.5"/>
			</g>
		</g>
	</g>
	<g id="XMLID_15_" class="st32">
		<g id="XMLID_38_">
			<linearGradient id="XMLID_95_" gradientUnits="userSpaceOnUse" x1="-74.1334" y1="253.824" x2="133.4815" y2="461.4389">
				<stop  offset="0" style="stop-color:#00AADA"/>
				<stop  offset="1" style="stop-color:#144B97"/>
			</linearGradient>
			<polygon id="XMLID_87_" class="st33" points="198.7,396.2 67.2,527.7 -139.1,320.5 -7.8,187.5 			"/>
			<path id="XMLID_84_" class="st34" d="M990.7-134.7l-611.5,611c0,0-0.4,0.4-1.2,1.2c-0.2,0.2-0.5,0.5-0.8,0.8l-4,4
				c-0.7,0.7-1.5,1.5-2.3,2.3l-1.7,1.7l-1.9,1.9c-0.7,0.6-1.3,1.3-2,2l-2.1,2.1c-5.1,5.1-11.2,11.2-18.1,18c-1,1-1.9,1.9-2.9,2.9
				l-1.5,1.5c-1,1-2,2-3.1,3.1c-32,32-74.8,74.8-99.3,99.2l-4.5,4.5c-5.7,5.7-10,10-12.5,12.4c-19.8,19.8-48,0-48,0L72,532.5
				l-4.8-4.8l131.5-131.5L610.6-20L990.7-134.7z"/>
			<path id="XMLID_39_" class="st34" d="M379.2,476.3c0,0-0.4,0.4-1.2,1.2c-0.2,0.2-0.5,0.5-0.8,0.8l-2,2c-0.6,0.6-1.3,1.3-2,2
				c-0.7,0.7-1.5,1.5-2.3,2.3c-0.6,0.6-1.1,1.1-1.7,1.7c-0.6,0.6-1.2,1.2-1.9,1.9c-0.7,0.6-1.3,1.3-2,2c-0.7,0.7-1.4,1.4-2.1,2.1
				c-5.1,5.1-11.2,11.2-18.1,18c-1,1-1.9,1.9-2.9,2.9l-1.5,1.5c-1,1-2,2-3.1,3.1c-32,32-74.8,74.8-99.3,99.2
				c-1.6,1.6-3.1,3.1-4.5,4.5c-5.7,5.7-10,10-12.5,12.4c-19.8,19.8-48,0-48,0L72,532.5l-4.8-4.8l131.5-131.5L379.2,476.3z"/>
		</g>
	</g>
</g>
</svg>
