<?xml version="1.0" standalone="no"?><!DOCTYPE svg PUBLIC "-//W3C//DTD SVG 1.1//EN" "http://www.w3.org/Graphics/SVG/1.1/DTD/svg11.dtd"><svg class="icon" height="512" viewBox="0 0 1024 1024" version="1.1" xmlns="http://www.w3.org/2000/svg" fill="#FFFFFF"><path d="M877.63 791.4L677.018 492.4c-25.6-40.6-38.018-88.8-38.018-140.4V166c0-39 25.184-66.5 30.018-84.166 4.592-16.784 1.024-16.834-30.376-16.834H385.052c-31.998 0-37.096 0.018-32.622 16.832C357.266 100 383 128.6 383 167V352c0 51.6-14.57 99.6-40.17 140.4l-98.558 153-98.202 145.8c-11.6 18-18.102 41.4-18.102 64.4 0 56 32.694 105.4 126.492 105.4h515.178c93.996 0 126.394-49.4 126.394-105.4-0.2-23-6.802-46.2-18.402-64.2zM818.436 882c-8.8 8.4-23.204 15-48.998 15h-515.18c-25.6 0-41.6-7-50.398-15.4-5.4-5.2-12-14.1-12-26.7 0-10 2.8-20.25 7.8-28.25l198.078-300.784c31.398-50.398 49.264-110.462 49.264-173.864V129h128v222.8c0 62.398 15.522 122.6 47.718 174l201.046 300c4.998 8 7.936 18.5 7.936 28.5-0.002 12.8-7.866 22.5-13.266 27.7zM778.434 822.602c0.102 0.15 0.2 0.794 0 0.498L614.69 577H407.396l-162.138 246.302c-3 4.2-4.6 10.35-4.6 15.948 0 15 12.576 27.75 27.374 27.75h488c15 0 27.198-13.45 27.198-28.25-0.002-5-2.198-12.148-4.796-16.148zM604.042 683.4c-3-3-4.6-7.202-4.6-11.4s1.798-8.4 4.6-11.4c3-3 7.2-4.6 11.2-4.6 4.204 0 8.4 1.6 11.204 4.6 3 3 4.598 7.202 4.598 11.4s-1.798 8.4-4.598 11.4c-3 3-7 4.6-11.204 4.6-4 0-8.2-1.8-11.2-4.6z m93.798 118c-2.8 1.796-5.8 2.6-8.604 2.6-4.998 0-10.198-2.6-13.196-7.2l-46.998-71.8c-4.8-7.4-2.8-17.4 4.598-22.2 2.8-1.8 5.8-2.602 8.8-2.602 5.2 0 10.2 2.602 13 7.202l47 71.8c4.796 7.398 2.796 17.398-4.6 22.2z" /></svg>