<svg id="svg" version="1.1" width="400" height="398.28326180257505" viewBox="0 0 400 398.28326180257505" xmlns="http://www.w3.org/2000/svg" xmlns:xlink="http://www.w3.org/1999/xlink" ><g id="svgg"><path id="path0" d="M194.622 7.965 C 180.721 8.969,162.042 14.865,147.100 22.967 C 128.239 33.194,116.689 55.820,112.152 91.431 C 111.000 100.471,113.048 111.349,118.553 125.432 C 120.587 130.635,120.696 132.041,119.298 135.044 C 117.702 138.473,117.429 142.098,118.127 150.598 C 119.713 169.902,121.043 173.829,129.866 185.259 C 131.151 186.923,132.968 190.270,134.949 194.622 C 136.645 198.347,139.598 204.569,141.510 208.449 C 146.815 219.211,147.524 224.763,144.860 234.661 C 143.072 241.303,143.034 241.216,152.552 252.167 C 161.622 262.602,167.521 267.783,179.766 276.069 C 190.765 283.513,190.946 283.763,187.849 287.251 C 184.765 290.723,176.296 303.831,173.882 308.867 C 171.635 313.557,171.737 313.965,177.797 324.452 C 184.802 336.575,184.616 335.509,182.505 351.394 C 180.303 367.964,179.826 369.855,178.085 368.923 C 177.120 368.406,177.654 369.868,161.547 323.705 C 143.414 271.739,144.543 274.840,140.658 266.335 C 136.159 256.487,135.947 256.317,132.794 260.022 C 123.801 270.590,120.275 272.357,94.803 279.054 C 82.032 282.412,75.969 284.342,68.127 287.548 C 60.758 290.560,54.563 292.895,39.641 298.286 C 32.629 300.819,21.604 304.827,15.139 307.193 C 8.675 309.559,2.625 311.731,1.693 312.019 L -0.000 312.545 -0.000 355.475 L 0.000 398.406 200.000 398.406 L 400.000 398.406 400.000 359.018 L 400.000 319.629 397.510 318.726 C 396.140 318.230,393.071 316.849,390.689 315.657 C 378.768 309.695,361.695 303.834,313.147 289.043 C 278.457 278.473,281.457 280.241,268.845 262.928 C 265.182 257.900,264.155 257.167,262.766 258.590 C 260.982 260.416,242.311 296.746,236.153 310.373 C 231.257 321.206,230.925 322.180,228.894 331.673 C 227.086 340.121,218.381 368.179,216.749 370.817 C 214.482 374.482,211.783 368.967,208.999 354.980 C 205.702 338.413,206.165 331.494,211.393 319.255 C 212.358 316.995,213.147 314.518,213.147 313.750 C 213.147 312.177,202.569 290.356,200.172 286.985 C 197.662 283.455,197.721 283.379,208.056 276.694 C 212.061 274.103,223.406 266.746,233.267 260.344 C 243.127 253.943,252.145 248.227,253.306 247.643 C 255.885 246.345,255.948 246.193,255.217 243.059 C 254.706 240.867,254.703 239.881,255.194 235.313 C 255.503 232.435,256.026 226.661,256.355 222.482 C 256.750 217.475,257.230 213.991,257.763 212.265 C 259.758 205.804,268.332 190.737,273.244 185.060 C 276.916 180.816,278.405 176.430,280.232 164.485 C 282.646 148.694,282.615 142.763,280.092 137.974 C 278.074 134.145,278.044 134.583,280.829 127.377 C 286.828 111.858,288.232 105.750,288.218 95.219 C 288.183 68.416,277.791 47.522,254.980 28.391 C 236.320 12.741,217.358 6.324,194.622 7.965 " stroke="none" fill="#848484" fill-rule="evenodd"></path><path id="path1" d="M0.000 156.175 C 0.000 280.851,0.100 312.350,0.498 312.349 C 1.022 312.347,1.314 312.243,17.729 306.252 C 23.426 304.172,33.556 300.493,40.239 298.076 C 54.614 292.876,60.851 290.522,68.127 287.548 C 75.969 284.342,82.032 282.412,94.803 279.054 C 120.275 272.357,123.801 270.590,132.794 260.022 C 135.947 256.317,136.159 256.487,140.658 266.335 C 144.543 274.840,143.414 271.739,161.547 323.705 C 177.654 369.868,177.120 368.406,178.085 368.923 C 179.826 369.855,180.303 367.964,182.505 351.394 C 184.616 335.509,184.802 336.575,177.797 324.452 C 171.737 313.965,171.635 313.557,173.882 308.867 C 176.296 303.831,184.765 290.723,187.849 287.251 C 190.946 283.763,190.765 283.513,179.766 276.069 C 167.521 267.783,161.622 262.602,152.552 252.167 C 143.034 241.216,143.072 241.303,144.860 234.661 C 147.524 224.763,146.815 219.211,141.510 208.449 C 139.598 204.569,136.645 198.347,134.949 194.622 C 132.968 190.270,131.151 186.923,129.866 185.259 C 121.043 173.829,119.713 169.902,118.127 150.598 C 117.429 142.098,117.702 138.473,119.298 135.044 C 120.696 132.041,120.587 130.635,118.553 125.432 C 113.048 111.349,111.000 100.471,112.152 91.431 C 116.696 55.765,128.234 33.195,147.171 22.928 C 173.136 8.851,201.234 4.259,222.876 10.556 C 248.645 18.052,274.957 42.549,283.646 67.134 C 290.814 87.418,290.063 103.491,280.829 127.377 C 278.044 134.583,278.074 134.145,280.092 137.974 C 282.615 142.763,282.646 148.694,280.232 164.485 C 278.405 176.430,276.916 180.816,273.244 185.060 C 268.332 190.737,259.758 205.804,257.763 212.265 C 257.230 213.991,256.750 217.475,256.355 222.482 C 256.026 226.661,255.503 232.435,255.194 235.313 C 254.703 239.881,254.706 240.867,255.217 243.059 C 255.948 246.193,255.885 246.345,253.306 247.643 C 252.145 248.227,243.127 253.943,233.267 260.344 C 223.406 266.746,212.061 274.103,208.056 276.694 C 197.721 283.379,197.662 283.455,200.172 286.985 C 202.569 290.356,213.147 312.177,213.147 313.750 C 213.147 314.518,212.358 316.995,211.393 319.255 C 206.165 331.494,205.702 338.413,208.999 354.980 C 211.783 368.967,214.482 374.482,216.749 370.817 C 218.381 368.179,227.086 340.121,228.894 331.673 C 230.925 322.180,231.257 321.206,236.153 310.373 C 242.311 296.746,260.982 260.416,262.766 258.590 C 264.155 257.167,265.182 257.900,268.845 262.928 C 281.457 280.241,278.457 278.473,313.147 289.043 C 361.493 303.773,378.877 309.734,390.494 315.566 C 394.006 317.330,399.169 319.522,399.810 319.522 C 399.914 319.522,400.000 247.629,400.000 159.761 L 400.000 0.000 200.000 0.000 L 0.000 0.000 0.000 156.175 " stroke="none" fill="#fbfbfb" fill-rule="evenodd"></path></g></svg>