<?xml version="1.0" standalone="no"?>
<!DOCTYPE svg PUBLIC "-//W3C//DTD SVG 20010904//EN"
 "http://www.w3.org/TR/2001/REC-SVG-20010904/DTD/svg10.dtd">
<svg version="1.0" xmlns="http://www.w3.org/2000/svg"
 width="980.000000pt" height="964.000000pt" viewBox="0 0 980.000000 964.000000"
 preserveAspectRatio="xMidYMid meet">
<metadata>
Created by potrace 1.15, written by Peter Selinger 2001-2017
</metadata>
<g transform="translate(0.000000,964.000000) scale(0.100000,-0.100000)"
fill="#000000" stroke="none">
<path d="M3840 9611 c-80 -22 -156 -56 -252 -112 -289 -168 -2228 -1482 -3088
-2093 -140 -100 -280 -207 -311 -238 -130 -132 -189 -272 -189 -453 0 -211 82
-366 270 -509 343 -262 1267 -901 2330 -1611 732 -489 1009 -667 1114 -716
162 -76 355 -91 451 -35 62 37 161 138 202 207 18 30 39 81 48 114 24 95 35
338 35 808 0 403 1 437 17 437 27 0 434 -107 592 -156 332 -103 667 -240 1018
-414 537 -267 1020 -590 1305 -872 604 -600 1104 -1827 1338 -3288 67 -419 80
-485 105 -537 38 -77 121 -133 198 -133 278 0 573 684 722 1672 44 295 50 398
50 878 0 654 -24 874 -146 1378 -199 821 -529 1454 -1084 2080 -129 146 -485
498 -625 618 -720 616 -1478 1019 -2335 1239 -302 78 -585 126 -960 163 l-180
18 -7 219 c-4 121 -12 382 -17 580 -7 233 -15 379 -24 415 -31 128 -140 266
-255 322 -58 29 -77 33 -161 35 -70 2 -114 -2 -161 -16z"/>
</g>
</svg>
