<svg width="1150" height="246.15" xmlns="http://www.w3.org/2000/svg" xmlns:svg="http://www.w3.org/2000/svg">
 <style>.first-color{
      fill: #fff;
    }</style>
 <g>
  <g stroke="null" id="XMLID_46_">
   <path stroke="null" id="XMLID_125_" class="first-color" d="m428.6952,125.09305l-17.43169,0l0,57.34627l-34.86337,0l0,-152.15107l53.02901,0c31.74402,0 56.51537,11.97127 56.51537,46.91968c0.18349,35.1415 -26.97325,47.8851 -57.24933,47.8851l0.00001,0l0,0.00001l0,0.00001zm-2.01841,-65.26277l-15.22978,0l0,35.91383l14.6793,0c13.02789,0 25.13832,-4.05479 25.13832,-18.53616c-0.18349,-14.48139 -12.11043,-17.37764 -24.58787,-17.37764l0.00001,-0.00001l0.00001,-0.00001l0,-0.00001l0.00001,0z"/>
   <path stroke="null" id="XMLID_705_" class="first-color" d="m559.89157,104.23986c-3.11936,-0.77233 -5.87173,-1.15851 -8.6241,-1.15851c-17.98216,0 -23.85389,15.44682 -23.85389,24.32872l0,55.02925l-33.57894,0l0,-106.96915l32.2945,0l0,15.44682l0.367,0c5.13776,-10.81278 15.0463,-18.53616 27.52371,-18.53616c2.56887,0 5.50474,0.19309 7.15616,0.77233l-1.28444,31.0867l0,-0.00001l0.00001,0l-0.00001,0l0,0.00001z"/>
   <path stroke="null" id="XMLID_711_" class="first-color" d="m669.43598,138.60901l-73.76356,0c1.10094,11.77818 12.29391,20.27396 24.22088,20.27396c10.6425,0 17.98216,-4.63405 22.38595,-11.19894l23.30342,15.44682c-9.54155,14.67448 -25.50532,22.78405 -46.23985,22.78405c-30.64308,0 -55.96488,-20.46701 -55.96488,-56.57394c0,-34.94841 24.03738,-57.34627 54.86395,-57.34627c30.0926,0 51.01064,21.62553 51.01064,58.31171c0.367,2.70319 0.367,5.59946 0.18349,8.30265l0,-0.00004l-0.00002,0l-0.00001,0l-0.00001,0zm-30.64308,-22.01172c0,-11.19894 -6.78918,-20.46701 -20.00056,-20.46701c-12.84441,0 -22.20248,9.46118 -23.11993,20.46701l43.12049,0l-0.00001,0l0.00001,0z"/>
   <path stroke="null" id="XMLID_714_" class="first-color" d="m744.48398,185.3356c-12.47742,0 -24.58787,-5.59946 -30.82656,-14.86755l-0.367,0l0,63.33192l-33.57894,0l0,-158.32977l31.92751,0l0,13.12979l0.55048,0c6.05521,-8.68884 17.61517,-16.02606 32.47798,-16.02606c29.54212,0 48.25825,26.25958 48.25825,55.99468c0,29.73509 -17.79867,56.76704 -48.44173,56.76704l0.00001,-0.00001l0.00001,-0.00001l0,-0.00001l-0.00001,-0.00001l0,-0.00001zm-7.89014,-84.1851c-15.0463,0 -24.58787,13.90213 -24.58787,27.41808c0,13.90213 9.35807,27.41808 24.58787,27.41808c15.96375,0 23.85389,-13.70903 23.85389,-27.80425c0,-13.51597 -7.89014,-27.0319 -23.85389,-27.0319l0,-0.00001l0,-0.00001l0,0.00001z"/>
   <path stroke="null" id="XMLID_717_" class="first-color" d="m807.78853,182.43932l0,-162.57767l33.94592,0l0,162.38457l-33.94592,0l0,0.19309l0,0.00001z"/>
   <path stroke="null" id="XMLID_719_" class="first-color" d="m962.47181,138.60901l-73.76356,0c1.10094,11.77818 12.29391,20.27396 24.22088,20.27396c10.6425,0 17.98216,-4.63405 22.38595,-11.19894l23.30342,15.44682c-9.54155,14.67448 -25.50532,22.78405 -46.23985,22.78405c-30.64308,0 -55.96488,-20.46701 -55.96488,-56.57394c0,-34.94841 24.03738,-57.34627 54.86395,-57.34627c30.0926,0 51.01064,21.62553 51.01064,58.31171c0.367,2.70319 0.367,5.59946 0.18349,8.30265l0,-0.00004l-0.00002,0l-0.00001,0l-0.00001,0zm-30.64308,-22.01172c0,-11.19894 -6.78918,-20.46701 -20.00056,-20.46701c-12.84441,0 -22.20248,9.46118 -23.11993,20.46701l43.12049,0l-0.00001,0l0.00001,0z"/>
   <path stroke="null" id="XMLID_723_" class="first-color" d="m974.21528,89.95157c11.92695,-11.77818 28.80815,-17.95692 45.32238,-17.95692c34.1294,0 46.79032,17.57074 46.79032,56.57394l0,53.87074l-30.64308,0l0,-11.39201l-0.55048,0c-5.13776,8.88192 -16.69772,13.90213 -28.80815,13.90213c-16.14723,0 -36.88179,-8.30265 -36.88179,-33.59681c0,-30.89362 35.78084,-36.10692 65.32297,-36.10692l0,-1.54468c0,-10.61969 -7.89014,-15.44682 -18.34916,-15.44682c-9.54155,0 -19.0831,5.02023 -25.13832,11.00584l-17.06472,-19.3085l0.00001,0.00001l0.00001,0l0.00002,0l-0.00001,0.00001l0,-0.00001zm61.65312,45.76116l-4.22031,0c-14.6793,0 -31.19353,1.93086 -31.19353,14.67448c0,8.10957 7.70663,11.00584 14.49583,11.00584c13.39487,0 21.10151,-8.68884 21.10151,-22.01172l0,-3.66862l-0.18349,0l0,0.00001l-0.00001,0.00001z"/>
   <path stroke="null" id="XMLID_727_" class="first-color" d="m1147.98167,45.92815c-2.38539,-0.77233 -5.87173,-1.54468 -9.17457,-1.54468c-12.29391,0 -14.8628,10.23351 -14.8628,20.27396l0,10.81278l22.75294,0l0,26.45267l-22.75294,0l0,80.51649l-33.57894,0l0,-80.51649l-18.71613,0l0,-26.45267l18.53262,0l0,-10.23351c0,-26.25958 9.72504,-49.2367 43.67097,-49.2367c5.68825,0 11.55997,0.57925 16.14723,2.12394l-2.01841,27.80425l0,0.00001l0.00002,-0.00001l0,-0.00001l0,-0.00001l0.00001,-0.00002z"/>
  </g>
  <g id="XMLID_48_">
   <path id="XMLID_150_" class="first-color" d="m28.64608,120.95325c-0.3,-0.3 -0.8,-0.7 -1.3,-1.2c-0.3,-0.3 -0.7,-0.7 -1.2,-1.1l-16.8,-17c7.1,7.1 16.7,16.6 19.3,19.3z"/>
   <path id="XMLID_149_" class="first-color" d="m177.64608,90.95325c-3,7 -7.1,13.8 -12.4,20.7l-31.7,-31.4c0.2,-1.3 0.3,-2.7 0.3,-4.1c-0.1,-6.8 -2.9,-12.9 -8.5,-18.5c-5.6,-5.6 -11.9,-8.4 -18.8,-8.6c-7,-0.1 -13.3,2.6 -18.9,8.2l-23.6,23.6l-28.9,-29l23.5,-23.5c18.2,-18.2 37,-27.6 56.4,-28.3c19.5,-0.7 35.8,5.5 49,18.7c10.6,10.5 16.9,24.5 19.2,41.9c1,9 -0.8,19.1 -5.6,30.3z"/>
   <g id="XMLID_79_">
    <linearGradient id="XMLID_2_" x1="0.19322" y1="0.19501" x2="0.80741" y2="0.8056">
     <stop offset="0" stop-color="#00ABDB"/>
     <stop offset="1" stop-color="#144B98"/>
    </linearGradient>
    <polygon id="XMLID_148_" fill="url(#XMLID_2_)" points="166.7460765838623,130.25326538085938 140.34608268737793,156.65325927734375 98.94608116149902,115.05325317382812 125.34608268737793,88.4532470703125 "/>
    <path id="XMLID_85_" fill="#00ABDB" d="m325.54608,23.75325l-122.6,122.6c0,0 -0.1,0.1 -0.2,0.2c0,0 -0.1,0.1 -0.2,0.2l-0.8,0.8c-0.1,0.1 -0.3,0.3 -0.5,0.5l-0.3,0.3l-0.4,0.4c-0.1,0.1 -0.3,0.3 -0.4,0.4l-0.4,0.4c-1,1 -2.3,2.3 -3.6,3.6c-0.2,0.2 -0.4,0.4 -0.6,0.6l-0.3,0.3c-0.2,0.2 -0.4,0.4 -0.6,0.6c-6.4,6.4 -15,15 -19.9,19.9l-0.9,0.9c-1.1,1.1 -2,2 -2.5,2.5c-4,4 -9.6,0 -9.6,0l-20.3,-20.3l-1,-1l26.4,-26.4l82.6,-83.5l76.1,-23z"/>
    <path id="XMLID_82_" fill="#00ABDB" d="m202.94608,146.35325c0,0 -0.1,0.1 -0.2,0.2c0,0 -0.1,0.1 -0.2,0.2l-0.4,0.4c-0.1,0.1 -0.3,0.3 -0.4,0.4c-0.1,0.1 -0.3,0.3 -0.5,0.5c-0.1,0.1 -0.2,0.2 -0.3,0.3c-0.1,0.1 -0.2,0.2 -0.4,0.4c-0.1,0.1 -0.3,0.3 -0.4,0.4c-0.1,0.1 -0.3,0.3 -0.4,0.4c-1,1 -2.3,2.3 -3.6,3.6c-0.2,0.2 -0.4,0.4 -0.6,0.6l-0.3,0.3c-0.2,0.2 -0.4,0.4 -0.6,0.6c-6.4,6.4 -15,15 -19.9,19.9c-0.3,0.3 -0.6,0.6 -0.9,0.9c-1.1,1.1 -2,2 -2.5,2.5c-4,4 -9.6,0 -9.6,0l-20.3,-20.3l-1,-1l26.4,-26.4l36.1,16.1z"/>
   </g>
   <path id="XMLID_72_" class="first-color" d="m185.24608,213.95325l-31.6,32.2l-126.3,-126.5c0.5,0.5 1,0.9 1.3,1.2c-2.6,-2.7 -12.2,-12.2 -19.3,-19.2l16.8,16.9c-5,-4.7 -14.7,-14 -20.4,-19.7c-0.1,-0.1 -0.3,-0.3 -0.4,-0.4s-0.3,-0.2 -0.4,-0.4l-3,-3l-0.1,-0.1c0.1,0 0,-0.1 -0.1,-0.2c-0.2,-0.2 -0.3,-0.4 -0.5,-0.6c-0.3,-0.4 -0.6,-0.8 -0.7,-1.2c-0.1,-0.2 -0.1,-0.3 -0.2,-0.5c0,-0.1 -0.1,-0.3 -0.1,-0.4c-0.6,-2 0,-3.9 0.7,-5.2c0,-0.1 0.1,-0.1 0.1,-0.2c0.3,-0.5 0.5,-0.9 0.8,-1.2c0.1,-0.1 0.1,-0.2 0.2,-0.3c0,0 0.1,0 0.1,-0.1l0.1,-0.1l0,0l0,0l1,-1l26.2,-26.3l28.6,28.8l127.2,127.5z"/>
   <path id="XMLID_67_" class="first-color" d="m28.64608,120.95325c-0.3,-0.3 -0.8,-0.7 -1.3,-1.2c-0.3,-0.3 -0.7,-0.7 -1.2,-1.1l-16.8,-17c7.1,7.1 16.7,16.6 19.3,19.3z"/>
  </g>
  <g id="XMLID_112_"/>
  <g id="XMLID_729_"/>
  <g id="XMLID_730_"/>
  <g id="XMLID_731_"/>
  <g id="XMLID_732_"/>
  <g id="XMLID_733_"/>
 </g>
</svg>
