<?xml version="1.0" encoding="utf-8"?>
<!-- Generator: Adobe Illustrator 19.0.0, SVG Export Plug-In . SVG Version: 6.00 Build 0)  -->
<svg version="1.1" id="Layer_1" xmlns="http://www.w3.org/2000/svg" xmlns:xlink="http://www.w3.org/1999/xlink" x="0px" y="0px"
	 viewBox="0 0 640 640" enable-background="new 0 0 640 640" xml:space="preserve">
<g>
	<g id="XMLID_2_">
	</g>
	<g id="XMLID_3_">
	</g>
	<g id="XMLID_4_">
	</g>
	<g id="XMLID_5_">
	</g>
	<g id="XMLID_6_">
	</g>
	<g id="XMLID_11_">
	</g>
	<g id="XMLID_12_">
	</g>
	<g id="XMLID_13_">
	</g>
	<g id="XMLID_14_">
	</g>
	<g id="XMLID_15_">
	</g>
	<g id="XMLID_16_">
	</g>
	<g id="XMLID_17_">
	</g>
	<g id="XMLID_18_">
	</g>
	<g id="XMLID_19_">
	</g>
	<path id="XMLID_7_" fill="#050202" d="M146,401.8V615H46V401.8c0-27.9,21.6-49.8,49.4-49.8h0C123.3,352,146,373.9,146,401.8z"/>
	<path id="XMLID_8_" fill="#050202" d="M293,517.6V615H193v-97.4c0-27.9,22-49.6,49.8-49.6h0C270.7,468,293,489.7,293,517.6z"/>
	<path id="XMLID_10_" fill="#050202" d="M441,372.8V615H339V372.8c0-27.9,22.9-50.5,50.8-50.5c13.9,0,27,5.7,36.1,14.8
		C435,346.2,441,358.9,441,372.8z"/>
	<path id="XMLID_9_" fill="#050202" d="M588,281.5V615H486V281.5c0-27.9,23.1-50.5,51-50.5c13.9,0,26.8,5.7,36,14.8
		C582.1,255,588,267.6,588,281.5z"/>
	<circle id="XMLID_216_" fill="#050202" cx="95.2" cy="272.8" r="49.6"/>
	<circle id="XMLID_254_" fill="#050202" cx="242.6" cy="369.3" r="49.6"/>
	<circle id="XMLID_255_" fill="#050202" cx="537.5" cy="123.6" r="49.6"/>
	<circle id="XMLID_256_" fill="#050202" cx="390.1" cy="239.4" r="49.6"/>
	<path d="M639.7,627.3c0,3.5-1.4,6.7-3.7,9c-2.3,2.3-5.5,3.7-9,3.7H12.7c-7,0-12.7-5.7-12.7-12.7c0-3.5,1.4-6.7,3.7-9
		c2.3-2.3,5.5-3.7,9-3.7H627C634,614.6,639.7,620.3,639.7,627.3z"/>
	
		<rect id="XMLID_448_" x="82.2" y="309.6" transform="matrix(0.8362 0.5484 -0.5484 0.8362 204.5125 -40.0434)" width="174.2" height="25.4"/>
	
		<rect id="XMLID_447_" x="195.7" y="225.8" transform="matrix(-0.7512 0.6601 -0.6601 -0.7512 839.7463 160.5163)" width="387.7" height="25.4"/>
</g>
</svg>
