<?xml version="1.0" standalone="no"?><!DOCTYPE svg PUBLIC "-//W3C//DTD SVG 1.1//EN" "http://www.w3.org/Graphics/SVG/1.1/DTD/svg11.dtd"><svg class="icon" height="512" viewBox="0 0 1024 1024" version="1.1" xmlns="http://www.w3.org/2000/svg" fill="#FFFFFF"><path d="M910.088624 657.023978c-4.139274 28.322046-9.959839 55.510268-20.039405 81.668021-14.759145 38.302351-36.642548 70.960145-73.014944 92.047416-22.548552 13.071713-47.098691 18.960841-73.014944 20.764929-31.506575 2.192945-62.156642-1.100054-91.334171-13.246699-45.577035-18.974144-72.340585-53.077869-79.944773-102.108562-4.332678-27.936259-2.364861-55.81419-0.145309-83.726913 0.933255-11.741415 1.866511-23.483854 2.714831-35.231409 1.573845-21.789259 3.75451-43.518143 6.149047-65.231677 2.02717-18.376533 3.494591-36.815487 5.468548-55.19816 2.26253-21.069875 4.888334-42.09984 7.211239-63.163575 1.910513-17.318434 3.524267-34.669614 5.423523-51.990095 2.332115-21.268396 4.847401-42.516326 7.233752-63.779605 0.844228-7.520277 1.459235-15.06716 2.362814-22.579251 0.215918-1.797949-0.454348-2.270716-1.907443-2.337231-1.476631-0.067538-2.958378-0.048095-4.438079-0.048095-53.486168-0.002047-106.97336 0.028653-160.459528-0.060375-4.123924-0.007163-7.02602-0.199545-7.002484 5.565762 0.030699 7.52437-1.278109 15.046694-1.826602 22.583344-1.832741 25.181519-3.196809 50.40397-5.462408 75.54558-3.034103 33.669844-5.983271 67.347874-9.599635 100.969623-3.502777 32.564673-7.109931 65.113997-11.917424 97.500615-9.04091 60.904115-20.079314 121.395838-41.74987 179.363064-7.641027 20.439518-17.080004 39.876196-34.112935 54.505381-15.271822 13.116739-33.051767 20.050662-52.960189 22.421662-23.327288 2.778276-45.671179-0.053212-66.566068-10.970866-18.276249-9.549493-31.828916-23.216771-35.864836-44.479027-3.330862-17.544585 2.080382-33.026184 10.487865-48.027853 11.320836-20.200064 26.517957-37.430494 41.23924-55.06513 54.422494-65.193815 93.449345-137.963165 110.109794-221.991953 6.401804-32.285311 12.069897-64.639183 16.480346-97.256044 3.232624-23.907503 5.474688-47.916313 8.483208-71.841212 1.101077-8.755408 1.046842-8.775874-7.565303-8.761548-21.351284 0.036839-42.73736-0.664126-64.046688 0.308015-32.258705 1.471514-63.35698 7.646144-89.911776 27.936259-19.097964 14.59337-35.226293 32.075533-49.756217 51.114145-1.023306 1.341554-2.447748 2.544963-2.987031 4.061502-6.562463 18.427698-21.934568 15.906272-36.47268 15.562441-3.663436-0.086981-2.811022-1.830695-2.072195-4.075829 14.042831-42.667775 32.04381-83.363639 59.748802-119.157867 18.323321-23.673166 38.875402-44.911886 66.097394-58.577117 17.693987-8.882298 36.849256-12.32777 56.216349-14.71412 50.596352-6.235005 101.459786-5.111414 152.273079-5.123694 152.21475-0.037862 304.429501 0.022513 456.644251-0.151449 5.897314-0.007163 7.765871 1.058099 7.68196 7.405667-0.39295 29.803793-0.320295 59.616796-0.036839 89.422635 0.049119 5.210675-1.602498 6.099928-6.345522 6.087649-58.982346-0.153496-117.966739-0.023536-176.949085-0.230244-5.377474-0.01842-6.91141 1.154289-7.262404 6.769171-1.636267 26.194592-3.930519 52.347229-5.960759 78.517261-0.943488 12.159948-1.797949 24.327058-2.735297 36.488029-2.034333 26.406416-4.088108 52.81181-6.149047 79.216179-0.86674 11.106965-1.863441 22.205745-2.64013 33.31885-2.311649 33.050744-3.572362 66.150606-2.512217 99.267864 0.630357 19.708877 3.012613 39.244816 7.191796 58.633399 5.529947 25.659403 20.629853 42.22673 44.962028 50.719148 26.315342 9.184173 52.827159 9.526981 78.82323-0.850367 27.40721-10.94119 41.051975-33.577746 48.996924-60.550051 0.825808-2.805906 2.15406-5.64558 2.165316-8.475022 0.030699-7.877411 3.965312-9.646708 11.089569-8.897647C896.833739 657.543817 903.214053 657.023978 910.088624 657.023978z" /></svg>