<svg xmlns="http://www.w3.org/2000/svg" width="262" height="262" viewBox="0 0 262 262">
  <defs>
    <style>
      .cls-1 {
        fill: #FFFFFF;
      }
    </style>
  </defs>
  <title>Course_Icon_BasicMath (2)</title>
  <g id="Laag_2" data-name="Laag 2">
    <g id="Laag_1-2" data-name="Laag 1">
      <g id="Course_Icon_BasicMath">
        <path class="cls-1" d="M214.05,262H48A48,48,0,0,1,0,214.05V48A48,48,0,0,1,48,0h166.1A48,48,0,0,1,262,48v166.1A48,48,0,0,1,214.05,262ZM48,20.52A27.45,27.45,0,0,0,20.52,48v166.1A27.45,27.45,0,0,0,48,241.48h166.1a27.45,27.45,0,0,0,27.43-27.43V48a27.45,27.45,0,0,0-27.43-27.43Z"/>
        <g>
          <path class="cls-1" d="M222.74,205H37.6a7,7,0,1,1,0-14H222.74a7,7,0,0,1,0,14Z"/>
          <path class="cls-1" d="M129.17,216a6.64,6.64,0,0,1-6.51-6.76V56.44a6.51,6.51,0,1,1,13,0V209.25A6.64,6.64,0,0,1,129.17,216Z"/>
          <path class="cls-1" d="M130,191c-16.44,0-32.65-18.61-48.18-55.3a418.64,418.64,0,0,1-18-53.15c-.73-2.86.64-5.88,3.06-6.75s5,.76,5.7,3.62A415.72,415.72,0,0,0,90.09,131c13.64,32.18,27.45,49.19,39.94,49.19s26.13-17.14,39.53-49.59a418.16,418.16,0,0,0,17.13-52c.71-2.87,3.25-4.52,5.68-3.68s3.82,3.83,3.12,6.7a423,423,0,0,1-17.65,53.61C162.57,172.22,146.49,191,130,191Z"/>
          <path class="cls-1" d="M188.14,160.47h-7.76a2.5,2.5,0,0,1,0-5H186a2.51,2.51,0,0,1,2.15-1.25h0a2.5,2.5,0,0,1,2.5,2.48v1.22a2.39,2.39,0,0,1-.19,1A2.5,2.5,0,0,1,188.14,160.47Zm-16.76,0h-9a2.5,2.5,0,0,1,0-5h9a2.5,2.5,0,0,1,0,5Zm16.69-10.26a2.51,2.51,0,0,1-2.5-2.49l0-9a2.5,2.5,0,0,1,2.49-2.52h0a2.51,2.51,0,0,1,2.5,2.49l0,9a2.5,2.5,0,0,1-2.48,2.52Zm-.09-18a2.49,2.49,0,0,1-2.5-2.49c0-3.06,0-6.12,0-9a2.52,2.52,0,0,1,2.5-2.51h0a2.5,2.5,0,0,1,2.5,2.5c0,2.89,0,5.94,0,9a2.5,2.5,0,0,1-2.49,2.51Zm0-18h0a2.5,2.5,0,0,1-2.49-2.51c0-9.41.1-9.52.52-10.24a2.5,2.5,0,0,1,4.61,1.78c0,.43-.11,2.1-.13,8.48A2.5,2.5,0,0,1,188,114.17Zm2.35-10.25Zm0,0Z"/>
          <g>
            <path class="cls-1" d="M229.73,193.44l-13-13.32a5.87,5.87,0,0,0-4.16-1.78,5.79,5.79,0,0,0-4.21,1.68,5.92,5.92,0,0,0-.11,8.37l13,13.32a5.92,5.92,0,0,0,4.24,1.79h.29a5.92,5.92,0,0,0,3.95-10.05Z"/>
            <path class="cls-1" d="M208.26,207.44l13-13.32a5.87,5.87,0,0,1,4.16-1.78,5.79,5.79,0,0,1,4.21,1.68,5.92,5.92,0,0,1,.11,8.37l-13,13.32a5.94,5.94,0,0,1-4.24,1.79h-.29a5.92,5.92,0,0,1-4-10.05Z"/>
          </g>
          <g>
            <path class="cls-1" d="M125.52,46.19l-13.32,13a5.9,5.9,0,0,0-1.79,4.17,5.84,5.84,0,0,0,1.69,4.21,5.93,5.93,0,0,0,8.37.1l13.32-13a6,6,0,0,0,1.79-4.25c0-.09,0-.19,0-.29a5.92,5.92,0,0,0-10-3.94Z"/>
            <path class="cls-1" d="M139.52,67.65l-13.32-13a5.88,5.88,0,0,1-1.79-4.16,5.8,5.8,0,0,1,1.69-4.21,5.92,5.92,0,0,1,8.37-.11l13.32,13a5.94,5.94,0,0,1,1.79,4.24c0,.1,0,.2,0,.29a5.92,5.92,0,0,1-10,4Z"/>
          </g>
        </g>
      </g>
    </g>
  </g>
</svg>
