<?xml version="1.0" standalone="no"?><!DOCTYPE svg PUBLIC "-//W3C//DTD SVG 1.1//EN" "http://www.w3.org/Graphics/SVG/1.1/DTD/svg11.dtd"><svg class="icon" height="512" viewBox="0 0 1024 1024" version="1.1" xmlns="http://www.w3.org/2000/svg"><path d="M388.864 1024c-77.12 0-146.768-23.92-201.36-69.184C59.296 848.528 12.864 760.352 16.16 629.44 19.168 509.232 82.24 382.496 140.24 304c48.768-66.016 173.824-158.48 198.368-176.368 4.608-3.36 12.32-7.264 23.168-7.264 11.248 0 46.24 10.112 80.16 25.76-3.68-12.512-2.768-25.2 2.72-36.224 5.088-10.08 11.52-18.048 45.92-30.24 5.184-17.44 16.048-39.52 38.944-53.392C536.768 21.888 574.304 0 600.64 0c9.392 0 17.696 2.528 24.704 7.52 12.224 8.768 20.96 25.328 22.32 42.272 1.28 16.064-3.936 30.88-14.768 41.68-12.64 12.64-27.808 13.968-35.952 14.672h-0.048c-2.848 5.952-4.128 10.928-5.6 16.56-1.312 5.072-2.912 11.264-5.76 17.664 13.12-5.44 26.4-11.84 32.48-15.76 0.224-0.56 0.48-1.12 0.752-1.696 15.104-32.32 30.64-62.192 54.752-73.152 14.32-6.496 20.576-10.192 35.744-19.12 6.512-3.84 8.96-5.856 11.36-7.792 5.28-4.288 15.104-12.272 31.616-12.272 22.56 0 40.64 17.44 43.952 42.464a36.16 36.16 0 0 1-1.2 15.088c-1.568 5.184-11.104 31.84-45.808 46.688a203.52 203.52 0 0 1-21.312 7.52c-3.776 1.2-8.96 2.768-10.4 3.68-0.928 2.464-3.36 9.344-5.696 16-5.44 15.488-11.632 33.072-25.872 45.504-9.888 8.64-23.952 14.72-38.88 21.184-6.592 2.88-17.376 7.52-21.472 10.128a11.68 11.68 0 0 0-0.928 2.272c-2.016 5.44-7.392 19.952-24 27.088-4.48 1.92-10.56 3.152-15.456 3.152-20.8 0-43.904-18.288-51.584-34.688a39.28 39.28 0 0 1-0.544-33.072c-7.808 3.76-16.128 7.152-23.84 9.088 2.336 3.2 4.208 6.448 5.536 9.712 8.32 20.4 23.744 125.856 8.384 150.304-2.96 4.72-5.28 7.152-29.568 31.712-37.6 38.048-115.792 117.216-151.28 165.36-31.072 42.16-63.168 99.92-39.488 135.68 5.312 8.032 14.352 17.232 37.376 17.232 22.4 0 51.2-8.832 83.312-25.536 40.832-21.232 159.152-130.208 237.44-202.304 78.56-72.32 96.576-88.368 108.912-93.888 2.08-0.96 4.272-1.728 6.528-2.336a45.872 45.872 0 0 1-28.608-34.16c-4.32-21.552 12.928-53.488 40.528-69.856-14.336 5.68-29.712 8.912-43.04 11.712-4.032 0.848-8.96 1.872-12.864 2.832-0.736 1.92-1.44 4-2 5.6-4 11.408-13.328 38.112-41.872 38.112-18.752 0-37.6-11.04-48.96-21.344-10.64-9.648-20.32-30.304-16.48-52.848 2.816-16.688 13.6-39.712 49.088-54.816 17.168-7.28 33.216-11.92 46.112-15.648 8.512-2.464 19.888-5.76 24.32-8.16 1.6-3.36 3.92-9.44 5.84-14.48 10.032-26.16 25.152-65.696 61.92-83.2 0 0 23.552-11.12 26.448-12.544 9.872-15.296 32.864-47.888 52.96-53.92 5.36-1.6 11.328-2.368 18.24-2.368 12.8 0 43.84 2.624 55.904 26.816 9.216 18.368 2.848 38.72-0.32 46.64a35.888 35.888 0 0 1-24.432 21.44l-0.224 0.736c-4.544 14.24-13.04 40.64-41.872 54.56-11.328 5.488-19.968 8.384-25.68 10.288l-1.392 0.48c-1.712 3.136-3.76 7.232-6.16 11.84a749.728 749.728 0 0 1-15.744 29.232c4.032-4.992 8.8-9.28 14.72-12.448 3.712-1.984 9.44-6.288 14.48-10.08 4.448-3.36 8.752-6.56 12.704-9.184 0.88-0.8 1.968-2.208 3.04-3.44 6.144-6.928 17.568-19.84 37.168-19.84 17.056 0 32.768 8.256 40.96 21.52 7.328 11.84 8 26.368 1.76 38.816-12.96 27.104-30.336 44.848-52.048 53.36-4.4 1.712-5.728 2.784-5.728 2.8-0.24 0.432-4.928 10.56-4.928 10.56-1.376 2.88-2.4 5.824-3.424 8.64-4.672 12.672-12.512 33.92-36.416 43.712-11.04 4.544-20.688 5.008-27.04 5.328l-1.824 0.064a98.08 98.08 0 0 0-5.504 7.904c-5.36 8.224-13.76 21.088-28.8 26.24 13.76 3.472 28.96 10.368 43.568 18.32 4.672-15.424 15.04-32.736 33.44-41.28l4.8-2.192c6.88-3.072 6.88-3.072 8.96-6.144 2.432-3.648 5.344-8.448 8.4-13.472 14.304-23.488 22.336-36.064 34.88-42.992 6.832-3.792 14.88-5.728 23.888-5.728 14.944 0 35.44 5.232 48.16 19.888 8.48 9.76 12.112 21.968 10.32 34.432-1.872 13.056-7.328 21.888-11.728 28.992-2.48 4-4.8 7.776-7.152 13.44a142.208 142.208 0 0 0-3.088 8.048c-6.08 16.8-12.704 26.72-33.712 37.696 0 0-11.744 6.08-14.112 7.36-3.904 12.528-10.304 20.288-17.328 25.024 12.56 14.496 13.328 23.36 13.84 29.328 0.112 1.232 6.496 136.208-1.536 161.6-8 25.232-200.272 210.88-314.24 292.64C563.936 995.008 474.4 1024 388.864 1024z m449.44-792.64c-8.272 12.512-16.896 22.944-26.592 30.368-3.12 2.368-6.4 4.512-9.856 6.448a96.8 96.8 0 0 1 4.16-1.344l9.568-2.72c3.68-1.008 7.728-2.128 10.288-2.976 1.28-2.8 3.2-7.68 4.56-11.168 2.464-6.24 4.96-12.576 7.84-18.56z" fill="#FFFFFF" /><path d="M566.192 197.952c-3.76 4.48 15.008 19.488 20.256 17.232 5.248-2.272 3.008-10.512 13.504-21.76 10.512-11.232 50.272-22.464 62.288-32.96 12-10.496 15.76-37.472 25.52-53.952 9.76-16.48 26.24-15.744 47.28-24.736 21.008-8.992 25.52-24 25.52-24s-1.52-11.232-8.272-11.232c-6.752 0-6.752 4.48-23.264 14.24s-24 14.24-40.528 21.728c-16.48 7.52-34.496 50.96-40.48 62.96-6.016 12-57.04 31.472-57.04 31.472s-21.408 16.96-24.768 20.992z m-70.56-39.728c6.016 2.24 35.28-13.504 48.8-22.496 13.488-8.992 8.992-24.736 21.76-48.704 12.736-24 32.256-12 41.248-20.992 9.008-8.992 2.24-25.472-3.008-29.232-5.248-3.728-31.52 5.28-56.272 20.256-24.768 14.992-26.272 50.208-26.272 50.208s-42.144 12.96-45.024 18.72c-5.984 12 12.8 30 18.784 32.24z m168.112 126.64c8.256 7.488 18.768 12 24.768 12s9.008-26.24 18.768-36c9.76-9.728 60.032-10.48 82.56-27.712 22.496-17.232 46.512-76.448 54.016-84.688 7.52-8.24 15.776-6.752 37.536-17.232 21.76-10.496 21.76-36.72 28.512-45.712 6.752-8.992 20.256-12 20.256-12s4.48-11.232 1.504-17.216c-3.008-6-24-8.24-31.52-6s-33.76 38.976-36 43.472c-2.272 4.48-5.28 5.248-38.288 20.96-33.024 15.76-42.016 66.72-53.28 85.44s-45.76 19.52-86.304 36.736c-40.512 17.232-26.4 44.416-22.496 47.952z m246.128-71.2c-9.008 6-20.256 15.744-30.016 20.96-9.76 5.28-17.248 36.736-24.752 48-7.52 11.232-15.76 11.968-39.04 18.72-23.248 6.752-33.888 31.568-33.008 35.968 0.752 3.744 3.76 8.992 11.248 8.24 7.52-0.752 13.504-20.24 26.272-29.984 12.752-9.76 23.264-3.744 36-8.992 12.768-5.248 14.272-20.24 21.024-34.48 6.72-14.24 8.992-23.232 30-31.472s30.768-31.472 33.024-35.968c2.24-4.48-4.512-8.24-10.528-8.24-5.984 0-11.232 11.264-20.24 17.248z m48.768 109.44c-6.752 3.728-21.76 31.456-30.768 44.96s-17.28 15.728-28.512 20.96-16.16 23.2-15.76 27.728c0.752 8.24 24 15.744 30.016 14.992 6.016-0.752 5.28-7.488 8.272-14.992 3.008-7.488 13.504-12 29.28-20.24 15.744-8.24 12.736-9.76 20.24-27.728 7.52-17.984 15.008-23.232 16.512-33.728 1.504-10.48-22.512-15.712-29.28-11.968z m-174.08 90.656c-21.76 9.76-272.4 257.824-344.432 295.296-72.032 37.472-136.576 42.72-167.36-3.744-30.752-46.464-9.76-108.672 40.544-176.864s175.584-188.864 179.328-194.88c3.76-5.984-1.504-93.664-11.248-117.648-9.76-24-115.04-63.952-121.568-59.2-16.528 12-144.096 105.664-190.624 168.64S55.168 510.464 52.16 630.352c-3.008 119.904 39.04 197.84 158.336 296.768s296.4 64.448 402.96-12C720 838.72 909.872 655.12 914.4 640.88c4.48-14.24 1.504-130.4 0-147.632-1.504-17.248-108.048-89.2-129.808-79.456z m-327.2-179.84c2.272 0 5.28 12.736 5.28 15.744S386.832 321.6 386.832 321.6s-6-10.496-8.256-11.248c0 0 76.528-76.432 78.784-76.432z m-202.592 56.96c9.312-6.128 87.04 43.472 87.04 43.472s-75.04 75.68-122.32 164.88-50.272 158.88 14.24 227.072 132.08 53.216 224.384 8.24c92.32-44.96 191.36-153.648 197.36-152.896 6 0.752 107.312 47.2 101.28 55.456-5.984 8.24-159.072 152.128-245.36 188.848-86.304 36.72-213.856 53.216-294.912-10.496-81.04-63.68-127.568-95.92-126.08-200.848 1.536-104.912 78.832-267.52 164.368-323.744zM768.8 744.272s-0.752-44.224-3.744-44.224-16.512 6-16.512 9.76c0 3.728 8.256 43.456 3.76 48.688-4.512 5.248-24.032 23.232-24.032 23.232l-5.248-55.456-18.768 14.24s7.52 48.72 5.248 53.216c-2.24 4.48-20.256 21.728-20.256 18.72 0-2.976-6.016-55.44-6.016-55.44s-18.752 6.752-18.752 11.248c0 4.48 12 54.72 7.52 59.952-4.512 5.248-24.032 18.72-24.032 16.48s-3.008-39.712-3.008-39.712-18.752 3.008-18.752 8.256 7.52 41.968 4.48 45.712c-2.992 3.744-20.24 13.488-20.24 13.488l-4.48-52.48s-16.528 9.008-16.528 13.504c0 4.48 9.008 47.968 5.248 50.96-3.76 2.992-25.52 16.48-25.52 14.24s-4.48-39.728-4.48-39.728-15.776 0.752-15.776 6 2.24 46.464 2.24 46.464l-19.52 8.256s-0.736-45.712-2.992-47.968c-2.24-2.24-18.016 3.744-18.016 6 0 2.24 8.256 47.968 3.744 50.208-4.48 2.272-32.256 13.504-33.008 9.76-0.752-3.744-1.504-51.712-1.504-51.712s-16.512-1.504-16.512 3.744 6.016 50.96 3.04 51.712c-3.04 0.752-29.28 5.248-29.28 2.992 0-2.24-3.008-48.704-3.008-48.704s-18.016 2.24-18.016 6.752c0 4.48 6 49.44 0.752 49.44s-20.256 3.008-21.008-0.736 0-46.464-3.008-48.72c-3.008-2.24-19.52-0.752-19.52 2.24 0 3.008 4.512 46.48 1.52 46.48-3.008 0-27.008-1.504-27.76-5.248-0.752-3.744 1.504-42.72-1.504-44.96-3.008-2.24-15.76-5.248-15.76-0.752 0 4.48 4.48 44.96-0.752 43.472-5.248-1.504-44.272 3.744-120.8-68.192S115.92 776.48 119.68 762.24c0 0 56.288 71.2 166.608 101.92 110.304 30.72 200.352 9.728 268.64-36.736 68.288-46.464 213.856-175.36 216.864-171.616 3.008 3.744 3.744 83.2 3.744 83.2l-6.72 5.28z m30.016-120.64s-7.52-13.504-13.504-16.48c0 0 94.56-96.688 99.04-98.192 4.512-1.504 7.52 29.232 7.52 29.232l-93.056 85.44z" fill="" /></svg>