<?xml version="1.0" encoding="iso-8859-1"?>
<!-- Generator: Adobe Illustrator 19.0.0, SVG Export Plug-In . SVG Version: 6.00 Build 0)  -->
<svg xmlns="http://www.w3.org/2000/svg" xmlns:xlink="http://www.w3.org/1999/xlink" version="1.1" id="Layer_1" x="0px" y="0px" viewBox="0 0 402.24 402.24" style="enable-background:new 0 0 402.24 402.24;" xml:space="preserve" width="512" height="512">
<g id="_x30_6._Puzzle_1_">
	<g id="XMLID_7_">
		<g>
			<g>
				<path style="fill:#F2D59F;" d="M392.24,25v176.11l-0.01,0.02h-73.32v-0.19c0-5.17,1.85-10.13,5.01-14.23      c4.43-5.77,7.04-13.01,7.04-20.85c0-19.31-15.97-34.88-35.42-34.23c-17.98,0.59-32.68,15.33-33.15,33.31      c-0.22,8.25,2.47,15.87,7.12,21.88c3.1,4,4.92,8.84,4.92,13.9v0.41h-73.3v-0.02V127.8h-0.41c-5.06,0-9.9,1.82-13.9,4.91      c-6.01,4.66-13.63,7.34-21.88,7.13c-17.98-0.47-32.72-15.17-33.31-33.15c-0.65-19.46,14.92-35.43,34.23-35.43      c7.84,0,15.08,2.62,20.85,7.05c4.1,3.16,9.06,5.01,14.23,5.01h0.19V10h101.43h74.68C385.52,10,392.24,16.72,392.24,25z"/>
			</g>
			<g>
				<path style="fill:#8ECAC1;" d="M392.23,302.56v74.68c0,8.28-6.72,15-15,15H201.11v-0.01v-73.32h0.19      c5.17,0,10.13,1.85,14.23,5.01c5.77,4.43,13.01,7.04,20.85,7.04c19.31,0,34.88-15.97,34.23-35.42      c-0.59-17.98-15.33-32.68-33.31-33.15c-8.25-0.22-15.87,2.47-21.88,7.12c-4,3.1-8.84,4.92-13.9,4.92h-0.41v-73.3h0.02h73.3      v-0.41c0-5.06-1.82-9.9-4.92-13.9c-4.65-6.01-7.34-13.63-7.12-21.88c0.47-17.98,15.17-32.72,33.15-33.31      c19.45-0.65,35.42,14.92,35.42,34.23c0,7.84-2.61,15.08-7.04,20.85c-3.16,4.1-5.01,9.06-5.01,14.23v0.19h73.32V302.56z"/>
			</g>
			<g>
				<path style="fill:#F2D59F;" d="M270.61,295.54c0.65,19.45-14.92,35.42-34.23,35.42c-7.84,0-15.08-2.61-20.85-7.04      c-4.1-3.16-9.06-5.01-14.23-5.01h-0.19v73.32H99.68H25c-8.28,0-15-6.72-15-15V201.11h73.32v0.19c0,5.17-1.85,10.13-5.01,14.23      c-4.43,5.77-7.05,13.01-7.05,20.85c0,19.31,15.97,34.88,35.43,34.23c17.98-0.59,32.68-15.33,33.15-33.31      c0.21-8.25-2.47-15.87-7.13-21.88c-3.09-4-4.91-8.84-4.91-13.9v-0.41h73.31v0.02v73.3h0.41c5.06,0,9.9-1.82,13.9-4.92      c6.01-4.65,13.63-7.34,21.88-7.12C255.28,262.86,270.02,277.56,270.61,295.54z"/>
			</g>
			<g>
				<path style="fill:#FF7124;" d="M201.13,201.11v0.02h-0.02v-0.02H127.8v0.41c0,5.06,1.82,9.9,4.91,13.9      c4.66,6.01,7.34,13.63,7.13,21.88c-0.47,17.98-15.17,32.72-33.15,33.31c-19.46,0.65-35.43-14.92-35.43-34.23      c0-7.84,2.62-15.08,7.05-20.85c3.16-4.1,5.01-9.06,5.01-14.23v-0.19H10V99.68V25c0-8.28,6.72-15,15-15h176.11h0.02v73.32h-0.19      c-5.17,0-10.13-1.85-14.23-5.01c-5.77-4.43-13.01-7.05-20.85-7.05c-19.31,0-34.88,15.97-34.23,35.43      c0.59,17.98,15.33,32.68,33.31,33.15c8.25,0.21,15.87-2.47,21.88-7.13c4-3.09,8.84-4.91,13.9-4.91h0.41V201.11z"/>
			</g>
		</g>
		<g>
			<g>
				<path style="fill:#5E2A41;" d="M392.24,211.11c-5.523,0-10-4.478-10-10V25c0-2.757-2.243-5-5-5H211.13v63.32      c0,5.522-4.477,10-10,10h-0.19c-7.284,0-14.315-2.451-20.333-7.089c-4.231-3.249-9.335-4.972-14.746-4.972      c-6.632,0-12.823,2.625-17.433,7.392c-4.609,4.766-7.025,11.054-6.803,17.705c0.415,12.624,10.991,23.158,23.577,23.486      c5.682,0.139,11.055-1.597,15.492-5.035c5.939-4.589,12.86-7.008,20.027-7.008h0.41c5.523,0,10,4.478,10,10v73.311      c0,5.522-4.477,10-10,10c-5.523,0-10-4.478-10-10v-59.161c-7.672,5.336-16.967,8.13-26.444,7.888      c-23.375-0.611-42.282-19.419-43.05-42.818c-0.404-12.112,4.005-23.575,12.416-32.271c8.412-8.697,19.709-13.487,31.81-13.487      c9.158,0,17.851,2.724,25.27,7.896V10c0-5.523,4.477-10,10-10h176.11c13.785,0,25,11.215,25,25v176.11      C402.24,206.633,397.763,211.11,392.24,211.11z"/>
			</g>
			<g>
				<path style="fill:#5E2A41;" d="M377.23,402.24H201.11c-5.523,0-10-4.478-10-10c0-5.522,4.477-10,10-10h176.12      c2.757,0,5-2.243,5-5V211.13h-63.32c-5.523,0-10-4.478-10-10v-0.189c0-7.284,2.451-14.315,7.088-20.334      c3.242-4.223,4.961-9.326,4.961-14.746c0-6.633-2.625-12.825-7.393-17.436c-4.764-4.607-11.043-7.015-17.694-6.801      c-12.624,0.414-23.158,10.991-23.487,23.578c-0.152,5.689,1.588,11.047,5.033,15.499c4.585,5.915,7.011,12.84,7.011,20.018v0.41      c0,5.522-4.477,10-10,10h-73.3c-5.523,0-10.01-4.478-10.01-10c0-5.522,4.467-10,9.99-10h59.164      c-5.348-7.703-8.133-17.01-7.881-26.456c0.611-23.364,19.419-42.271,42.818-43.039c12.106-0.382,23.564,4.004,32.26,12.414      c8.698,8.412,13.488,19.71,13.488,31.812c0,9.166-2.72,17.858-7.886,25.27h59.156c5.523,0,10,4.478,10,10v176.11      C402.23,391.025,391.015,402.24,377.23,402.24z"/>
			</g>
			<g>
				<path style="fill:#5E2A41;" d="M201.11,402.23H25c-13.785,0-25-11.215-25-25V201.11c0-5.522,4.477-10,10-10      c5.523,0,10,4.478,10,10v176.12c0,2.757,2.243,5,5,5h166.11v-63.32c0-5.522,4.477-10,10-10h0.19      c7.286,0,14.317,2.451,20.334,7.089c4.221,3.242,9.325,4.961,14.745,4.961c6.633,0,12.825-2.626,17.436-7.392      c4.607-4.764,7.022-11.048,6.8-17.693c-0.414-12.624-10.991-23.158-23.577-23.487c-5.684-0.177-11.047,1.589-15.5,5.032      c-5.914,4.585-12.839,7.011-20.019,7.011h-0.41c-5.523,0-10-4.478-10-10v-73.3c0-5.522,4.477-10.01,10-10.01      c5.523,0,10,4.468,10,9.99v59.164c7.705-5.349,17.015-8.145,26.456-7.881c23.364,0.611,42.271,19.42,43.039,42.818      c0.404,12.105-4.004,23.564-12.413,32.259c-8.413,8.699-19.711,13.489-31.813,13.489c-9.167,0-17.858-2.72-25.27-7.886v59.156      C211.11,397.753,206.633,402.23,201.11,402.23z"/>
			</g>
			<g>
				<path style="fill:#5E2A41;" d="M105.491,280.631c-11.546,0-22.414-4.385-30.744-12.441C66.05,259.777,61.26,248.48,61.26,236.38      c0-9.159,2.723-17.852,7.896-25.27H10c-5.523,0-10-4.478-10-10V25C0,11.215,11.215,0,25,0h176.11c5.523,0,10,4.477,10,10      c0,5.522-4.477,10-10,10H25c-2.757,0-5,2.243-5,5v166.11h63.32c5.523,0,10,4.478,10,10v0.189c0,7.285-2.452,14.316-7.089,20.335      c-3.248,4.229-4.971,9.333-4.971,14.745c0,6.632,2.625,12.823,7.391,17.434c4.765,4.608,11.048,6.992,17.705,6.803      c12.625-0.414,23.158-10.991,23.487-23.578c0.145-5.695-1.597-11.055-5.036-15.49c-4.588-5.939-7.007-12.859-7.007-20.027v-0.41      c0-5.522,4.477-10,10-10h73.31c5.523,0,10,4.478,10,10c0,5.522-4.477,10-10,10h-59.162c5.337,7.672,8.129,16.98,7.888,26.444      c-0.611,23.376-19.419,42.282-42.819,43.051C106.508,280.622,105.998,280.631,105.491,280.631z"/>
			</g>
		</g>
	</g>
</g>















</svg>
