<svg height="512pt" viewBox="-37 0 512 512" width="512pt" xmlns="http://www.w3.org/2000/svg" fill="#FFFFFF"><path d="m429.273438 0h-288.546876l45 91h198.546876zm0 0"/><path d="m105 422c8.277344 0 15-6.722656 15-15s-6.722656-15-15-15-15 6.722656-15 15 6.722656 15 15 15zm0 0"/><path d="m0 0v407c0 57.890625 47.109375 105 105 105s105-47.109375 105-105v-106.75c19.078125 19.53125 45.609375 31.75 75 31.75s55.921875-12.21875 75-31.75v91.75h-27.699219l-20.011719 120h125.421876l-20.011719-120h-27.699219v-166c0-40.730469-23.796875-77.328125-60-94.578125v94.578125c0 24.8125-20.1875 45-45 45s-45-20.1875-45-45v-94.578125c-36.203125 17.25-60 53.847656-60 94.578125v107.75c-19.078125-19.53125-45.609375-31.75-75-31.75s-55.921875 12.21875-75 31.75v-333.75zm105 362c24.8125 0 45 20.1875 45 45s-20.1875 45-45 45-45-20.1875-45-45 20.1875-45 45-45zm0 0"/><path d="m285 241c8.277344 0 15-6.722656 15-15v-105h-30v105c0 8.277344 6.722656 15 15 15zm0 0"/></svg>