<?xml version="1.0" standalone="no"?>
<!DOCTYPE svg PUBLIC "-//W3C//DTD SVG 20010904//EN"
 "http://www.w3.org/TR/2001/REC-SVG-20010904/DTD/svg10.dtd">
<svg version="1.0" xmlns="http://www.w3.org/2000/svg"
 width="512.000000pt" height="512.000000pt" viewBox="0 0 512.000000 512.000000"
 preserveAspectRatio="xMidYMid meet">
<metadata>
Created by potrace 1.15, written by Peter Selinger 2001-2017
</metadata>
<g transform="translate(0.000000,512.000000) scale(0.100000,-0.100000)"
fill="#000000" stroke="none">
<path d="M2275 4089 c-419 -39 -820 -157 -1200 -353 -459 -236 -850 -591
-1006 -911 -56 -116 -68 -163 -69 -263 0 -92 13 -146 60 -249 65 -141 151
-255 320 -424 228 -229 440 -378 755 -534 434 -214 850 -317 1335 -332 677
-20 1332 170 1885 548 286 195 535 446 663 667 96 165 124 310 87 452 -71 275
-371 619 -775 887 -435 289 -958 468 -1503 512 -146 13 -420 12 -552 0z m485
-304 c449 -73 846 -410 999 -848 130 -373 79 -740 -152 -1076 -62 -91 -196
-227 -292 -298 -395 -293 -925 -323 -1355 -77 -562 322 -772 1051 -475 1647
147 295 428 531 740 622 156 45 366 57 535 30z"/>
<path d="M2355 3339 c-281 -69 -507 -297 -575 -579 -27 -116 -27 -284 0 -400
68 -285 295 -512 580 -580 116 -27 284 -27 400 0 283 68 512 297 580 580 27
116 27 284 0 400 -68 285 -295 512 -580 580 -114 27 -293 26 -405 -1z"/>
</g>
</svg>
