<?xml version="1.0"?>
<svg xmlns="http://www.w3.org/2000/svg" viewBox="0 0 64 64">
    <path d="M 31.998047 0.12109375 C 29.936547 0.12109375 27.876188 0.76151562 26.117188 2.0410156 L 23.423828 4 L 9 4 C 7.346 4 6 5.346 6 7 L 6 59 C 6 60.654 7.346 62 9 62 L 55 62 C 56.654 62 58 60.654 58 59 L 58 7 C 58 5.346 56.654 4 55 4 L 40.574219 4 L 37.880859 2.0410156 C 36.121859 0.76151562 34.059547 0.12109375 31.998047 0.12109375 z M 32 2.1230469 C 33.649125 2.1230469 35.298078 2.6347031 36.705078 3.6582031 L 40.763672 6.609375 C 41.537672 7.172375 42 8.0801094 42 9.0371094 L 42 11 C 42 11.552 41.551 12 41 12 L 23 12 C 22.449 12 22 11.552 22 11 L 22 9.0371094 C 22 8.0801094 22.461375 7.172375 23.234375 6.609375 L 27.294922 3.6582031 C 28.702422 2.6347031 30.350875 2.1230469 32 2.1230469 z M 32 3 C 30.346 3 29 4.346 29 6 C 29 7.654 30.346 9 32 9 C 33.654 9 35 7.654 35 6 C 35 4.346 33.654 3 32 3 z M 32 5 C 32.551 5 33 5.448 33 6 C 33 6.552 32.551 7 32 7 C 31.449 7 31 6.552 31 6 C 31 5.448 31.449 5 32 5 z M 9 6 L 21.039062 6 C 20.378063 6.864 20 7.9281094 20 9.0371094 L 20 10 L 14 10 C 12.897 10 12 10.897 12 12 L 12 54 C 12 55.103 12.897 56 14 56 L 42.171875 56 C 42.972875 56 43.725969 55.688094 44.292969 55.121094 L 51.121094 48.292969 C 51.688094 47.726969 52 46.972875 52 46.171875 L 52 12 C 52 10.897 51.103 10 50 10 L 44 10 L 44 9.0371094 C 44 7.9281094 43.621938 6.864 42.960938 6 L 55 6 C 55.551 6 56 6.448 56 7 L 56 59 C 56 59.552 55.551 60 55 60 L 9 60 C 8.449 60 8 59.552 8 59 L 8 7 C 8 6.448 8.449 6 9 6 z M 14 12 L 20.183594 12 C 20.597594 13.161 21.698 14 23 14 L 41 14 C 42.302 14 43.402406 13.161 43.816406 12 L 50 12 L 50 46 L 44 46 C 42.897 46 42 46.897 42 48 L 42 54 L 14 54 L 14 12 z M 17 16 C 16.448 16 16 16.447 16 17 L 16 19 C 16 19.553 16.448 20 17 20 C 17.552 20 18 19.553 18 19 L 18 17 C 18 16.447 17.552 16 17 16 z M 22 16 C 21.448 16 21 16.447 21 17 L 21 19 C 21 19.553 21.448 20 22 20 C 22.552 20 23 19.553 23 19 L 23 17 C 23 16.447 22.552 16 22 16 z M 27 16 C 26.448 16 26 16.447 26 17 L 26 19 C 26 19.553 26.448 20 27 20 C 27.552 20 28 19.553 28 19 L 28 17 C 28 16.447 27.552 16 27 16 z M 32 16 C 31.448 16 31 16.447 31 17 L 31 19 C 31 19.553 31.448 20 32 20 C 32.552 20 33 19.553 33 19 L 33 17 C 33 16.447 32.552 16 32 16 z M 37 16 C 36.448 16 36 16.447 36 17 L 36 19 C 36 19.553 36.448 20 37 20 C 37.552 20 38 19.553 38 19 L 38 17 C 38 16.447 37.552 16 37 16 z M 42 16 C 41.448 16 41 16.447 41 17 L 41 19 C 41 19.553 41.448 20 42 20 C 42.552 20 43 19.553 43 19 L 43 17 C 43 16.447 42.552 16 42 16 z M 47 16 C 46.448 16 46 16.447 46 17 L 46 19 C 46 19.553 46.448 20 47 20 C 47.552 20 48 19.553 48 19 L 48 17 C 48 16.447 47.552 16 47 16 z M 40 26 C 39.74425 26 39.488469 26.097469 39.292969 26.292969 C 38.901969 26.683969 38.901969 27.316031 39.292969 27.707031 L 40.585938 29 L 39.292969 30.292969 C 38.901969 30.683969 38.901969 31.316031 39.292969 31.707031 C 39.487969 31.902031 39.744 32 40 32 C 40.256 32 40.512031 31.902031 40.707031 31.707031 L 42 30.414062 L 43.292969 31.707031 C 43.487969 31.902031 43.744 32 44 32 C 44.256 32 44.512031 31.902031 44.707031 31.707031 C 45.098031 31.316031 45.098031 30.683969 44.707031 30.292969 L 43.414062 29 L 44.707031 27.707031 C 45.098031 27.316031 45.098031 26.683969 44.707031 26.292969 C 44.316031 25.901969 43.683969 25.901969 43.292969 26.292969 L 42 27.585938 L 40.707031 26.292969 C 40.511531 26.097469 40.25575 26 40 26 z M 20 28 C 19.448 28 19 28.447 19 29 C 19 29.553 19.448 30 20 30 L 26 30 C 26.552 30 27 29.553 27 29 C 27 28.447 26.552 28 26 28 L 20 28 z M 30 28 C 29.448 28 29 28.447 29 29 C 29 29.553 29.448 30 30 30 L 34 30 C 34.552 30 35 29.553 35 29 C 35 28.447 34.552 28 34 28 L 30 28 z M 40 36 C 39.74425 36 39.488469 36.097469 39.292969 36.292969 C 38.901969 36.683969 38.901969 37.316031 39.292969 37.707031 L 40.585938 39 L 39.292969 40.292969 C 38.901969 40.683969 38.901969 41.316031 39.292969 41.707031 C 39.487969 41.902031 39.744 42 40 42 C 40.256 42 40.512031 41.902031 40.707031 41.707031 L 42 40.414062 L 43.292969 41.707031 C 43.487969 41.902031 43.744 42 44 42 C 44.256 42 44.512031 41.902031 44.707031 41.707031 C 45.098031 41.316031 45.098031 40.683969 44.707031 40.292969 L 43.414062 39 L 44.707031 37.707031 C 45.098031 37.316031 45.098031 36.683969 44.707031 36.292969 C 44.316031 35.901969 43.683969 35.901969 43.292969 36.292969 L 42 37.585938 L 40.707031 36.292969 C 40.511531 36.097469 40.25575 36 40 36 z M 20 38 C 19.448 38 19 38.447 19 39 C 19 39.553 19.448 40 20 40 L 34 40 C 34.552 40 35 39.553 35 39 C 35 38.447 34.552 38 34 38 L 20 38 z M 44 48 L 48.585938 48 L 44 52.585938 L 44 48 z"/>
</svg>
