<?xml version="1.0" encoding="utf-8"?>
<!-- Generator: Adobe Illustrator 19.0.0, SVG Export Plug-In . SVG Version: 6.00 Build 0)  -->
<svg version="1.1" id="Layer_1" xmlns="http://www.w3.org/2000/svg" xmlns:xlink="http://www.w3.org/1999/xlink" x="0px" y="0px"
	 viewBox="0 0 640 640" enable-background="new 0 0 640 640" xml:space="preserve">
<path id="XMLID_407_" d="M580.2,0H59.9C26.8,0,0,26.8,0,59.9v342.8C0,435.7,26.8,462,59.9,462h60.9L60.9,635.4L235.4,462h344.8
	c33.1,0,59.8-26.3,59.8-59.3V59.9C640,26.8,613.3,0,580.2,0z M117.9,198.6c-31.4,0-56.9-25.5-56.9-57c0-31.4,25.5-56.9,56.9-56.9
	c31.5,0,57,25.5,57,56.9C174.8,173.1,149.3,198.6,117.9,198.6z M572.7,336.8c-5.1,5.1-12.2,8.2-19.9,8.2H149
	c-15.6,0-28.2-12.5-28.2-28.1c0-7.8,3.2-14.7,8.3-19.8c5.1-5.1,12.2-8.1,20-8.1h403.7c15.6,0,28.2,12.5,28.2,28
	C580.9,324.8,577.8,331.7,572.7,336.8z M572.7,163.1c-5.1,5.1-12.2,8.9-19.9,8.9H263.6c-15.6,0-28.2-13.3-28.2-28.9
	c0-7.8,3.2-15.3,8.3-20.4c5.1-5.1,12.2-8.7,20-8.7h289.1c15.6,0,28.2,13.1,28.2,28.7C580.9,150.5,577.8,158,572.7,163.1z"/>
<g id="XMLID_1_">
</g>
<g id="XMLID_2_">
</g>
<g id="XMLID_3_">
</g>
<g id="XMLID_4_">
</g>
<g id="XMLID_5_">
</g>
<g id="XMLID_6_">
</g>
<g id="XMLID_7_">
</g>
<g id="XMLID_8_">
</g>
<g id="XMLID_9_">
</g>
<g id="XMLID_10_">
</g>
<g id="XMLID_11_">
</g>
<g id="XMLID_12_">
</g>
<g id="XMLID_13_">
</g>
<g id="XMLID_14_">
</g>
<g id="XMLID_15_">
</g>
</svg>
