<?xml version="1.0" standalone="no"?>
<!DOCTYPE svg PUBLIC "-//W3C//DTD SVG 20010904//EN"
 "http://www.w3.org/TR/2001/REC-SVG-20010904/DTD/svg10.dtd">
<svg version="1.0" xmlns="http://www.w3.org/2000/svg"
 width="1024.000000pt" height="1024.000000pt" viewBox="0 0 1024.000000 1024.000000"
 preserveAspectRatio="xMidYMid meet" fill="#be3300">
<metadata>
Created by potrace 1.15, written by Peter Selinger 2001-2017
</metadata>
<g transform="translate(0.000000,1024.000000) scale(0.100000,-0.100000)"
fill="#be3300" stroke="none">
<path d="M8180 8174 c-54 -11 -97 -28 -129 -52 -36 -27 -81 -111 -81 -153 0
-25 2 -26 77 -33 122 -10 118 -11 131 33 15 48 31 61 80 68 78 10 124 -72 79
-141 -10 -14 -70 -68 -135 -120 -65 -51 -135 -113 -155 -137 -41 -48 -82 -126
-92 -176 l-7 -33 306 0 306 0 0 80 0 80 -155 0 c-85 0 -155 3 -155 6 0 7 41
41 136 111 94 71 138 120 159 182 18 53 19 82 4 136 -15 52 -82 119 -134 134
-44 13 -196 22 -235 15z"/>
<path d="M2670 7385 c-221 -45 -385 -157 -465 -318 -73 -148 -69 -89 -75
-1031 l-5 -849 -418 -225 c-230 -124 -414 -228 -410 -233 4 -4 194 -107 421
-229 l412 -222 0 -814 c0 -917 -1 -904 72 -1054 86 -176 238 -281 483 -331 58
-12 319 -19 328 -9 2 3 -7 86 -20 186 l-25 181 -47 -5 c-121 -11 -284 40 -347
111 -74 81 -68 9 -74 1035 l-5 924 -207 112 c-114 61 -209 114 -212 117 -4 3
90 57 206 120 l213 114 5 925 5 925 31 55 c61 107 171 160 339 161 l92 0 22
162 c12 89 24 172 27 185 l4 22 -142 -1 c-79 0 -172 -7 -208 -14z"/>
<path d="M7224 7379 c3 -13 15 -97 27 -186 l22 -162 92 0 c168 -1 278 -54 339
-161 l31 -55 5 -925 5 -925 213 -114 c116 -63 210 -117 206 -120 -3 -3 -98
-56 -212 -117 l-207 -112 -5 -924 c-6 -1026 0 -954 -74 -1035 -63 -71 -226
-122 -347 -111 l-47 5 -25 -181 c-13 -100 -22 -183 -20 -186 9 -10 270 -3 328
9 245 50 397 155 483 331 73 150 72 137 72 1054 l0 814 413 222 c226 122 416
225 420 229 4 5 -180 109 -410 233 l-418 225 -5 849 c-6 942 -2 883 -75 1031
-53 107 -141 191 -258 247 -135 65 -195 78 -390 83 l-168 5 5 -23z"/>
<path d="M4338 5278 l-3 -1073 -190 432 -190 433 -242 0 -243 0 0 -185 0 -184
122 -3 122 -3 317 -720 c175 -396 321 -726 326 -733 6 -10 45 -5 186 24 l177
38 0 1338 0 1338 1025 0 1025 0 0 185 0 185 -1215 0 -1215 0 -2 -1072z"/>
<path d="M5140 5165 c0 -2 89 -127 198 -277 109 -150 201 -279 206 -286 5 -8
-70 -123 -208 -323 -119 -170 -216 -312 -216 -315 0 -2 112 -4 248 -4 l248 0
128 190 c70 105 130 190 134 190 4 0 56 -86 115 -190 l108 -190 270 0 270 0
-29 43 c-16 23 -116 165 -221 316 -124 178 -188 277 -183 285 17 21 388 541
396 554 6 9 -46 12 -247 12 l-254 0 -108 -162 c-59 -90 -111 -164 -115 -166
-5 -2 -50 71 -102 162 l-93 165 -272 1 c-150 0 -273 -2 -273 -5z"/>
</g>
</svg>
