<?xml version="1.0" standalone="no"?>
<!DOCTYPE svg PUBLIC "-//W3C//DTD SVG 20010904//EN"
 "http://www.w3.org/TR/2001/REC-SVG-20010904/DTD/svg10.dtd">
<svg version="1.0" xmlns="http://www.w3.org/2000/svg"
 width="1024.000000pt" height="1024.000000pt" viewBox="0 0 1024.000000 1024.000000"
 preserveAspectRatio="xMidYMid meet">
<metadata>
Created by potrace 1.15, written by Peter Selinger 2001-2017
</metadata>
<g transform="translate(0.000000,1024.000000) scale(0.100000,-0.100000)"
fill="#be3300" stroke="none">
<path d="M3307 8479 c-268 -63 -439 -504 -557 -1442 -54 -431 -88 -844 -150
-1812 -113 -1776 -167 -2328 -266 -2750 -49 -205 -115 -335 -171 -335 -25 0
-70 48 -123 130 -55 86 -218 418 -316 648 -60 141 -82 182 -94 179 -9 -2 -91
-35 -182 -72 l-165 -68 22 -56 c172 -422 397 -805 576 -982 304 -300 580 -191
749 296 156 450 246 1157 345 2730 91 1440 136 1984 200 2433 64 441 142 686
227 716 23 8 32 6 54 -15 83 -75 264 -427 444 -862 26 -64 36 -78 51 -74 10 3
92 36 182 73 l164 69 -25 60 c-69 165 -197 426 -270 555 -196 343 -373 529
-547 575 -65 17 -91 17 -148 4z"/>
<path d="M4392 6803 c-566 -1100 -670 -2599 -266 -3854 87 -272 307 -765 337
-757 7 2 85 43 174 92 l160 89 -62 121 c-240 472 -388 1017 -446 1646 -16 173
-16 644 0 825 53 608 202 1159 442 1636 32 65 59 122 59 127 0 7 -322 192
-334 192 -2 0 -30 -53 -64 -117z"/>
<path d="M8220 6832 c-85 -48 -160 -90 -166 -94 -8 -5 8 -46 50 -130 239 -472
388 -1020 441 -1615 18 -197 20 -651 5 -833 -52 -622 -199 -1168 -445 -1660
l-64 -127 165 -91 c91 -51 169 -92 173 -92 5 0 36 53 69 118 215 420 377 942
452 1452 136 925 32 1868 -300 2705 -38 96 -211 455 -219 455 -3 -1 -76 -40
-161 -88z"/>
<path d="M5626 6198 c5 -7 108 -152 231 -321 123 -169 223 -310 223 -313 0 -3
-105 -157 -233 -342 -129 -186 -237 -343 -241 -349 -6 -10 51 -13 271 -13
l278 0 144 215 c80 118 146 215 147 215 1 0 58 -97 126 -215 l123 -215 297 0
c164 0 298 2 298 5 0 3 -108 160 -240 349 -132 189 -240 346 -240 350 0 3 101
147 225 320 124 173 225 317 225 320 0 3 -126 6 -280 6 l-280 0 -127 -190
c-69 -105 -127 -189 -128 -188 -2 2 -51 87 -110 191 l-107 187 -304 0 c-242 0
-304 -3 -298 -12z"/>
<path d="M5110 4310 l0 -200 1308 2 1307 3 0 195 0 195 -1307 3 -1308 2 0
-200z"/>
<path d="M5650 3765 c0 -3 126 -305 281 -673 265 -630 280 -669 270 -702 -16
-56 -67 -116 -119 -142 -41 -20 -60 -23 -147 -21 -55 1 -126 9 -157 16 -41 10
-58 11 -58 3 1 -25 40 -339 43 -342 9 -9 156 -25 282 -30 172 -8 275 9 382 61
88 44 136 95 198 217 26 50 174 433 330 852 l282 761 -250 3 c-148 1 -253 -1
-256 -7 -3 -5 -62 -205 -131 -445 -68 -240 -127 -436 -130 -436 -3 0 -66 199
-141 443 l-137 442 -271 3 c-149 1 -271 0 -271 -3z"/>
</g>
</svg>
