<?xml version="1.0" standalone="no"?>
<!DOCTYPE svg PUBLIC "-//W3C//DTD SVG 20010904//EN"
 "http://www.w3.org/TR/2001/REC-SVG-20010904/DTD/svg10.dtd">
<svg version="1.0" xmlns="http://www.w3.org/2000/svg"
 width="1024.000000pt" height="1024.000000pt" viewBox="0 0 1024.000000 1024.000000"
 preserveAspectRatio="xMidYMid meet">
<metadata>
Created by potrace 1.15, written by Peter Selinger 2001-2017
</metadata>
<g transform="translate(0.000000,1024.000000) scale(0.100000,-0.100000)"
fill="#be3300" stroke="none">
<path d="M1665 8140 l-380 -380 280 -2 280 -3 3 -2737 2 -2738 3175 0 3175 0
0 -277 0 -278 377 378 378 377 -378 377 -377 378 0 -278 0 -277 -655 0 -655 0
0 1749 0 1750 103 91 c133 119 260 204 343 230 107 33 171 24 248 -35 l45 -34
140 131 c78 72 141 134 141 138 0 15 -120 118 -179 154 -218 133 -457 109
-731 -73 -151 -100 -253 -192 -630 -570 -212 -213 -430 -424 -485 -470 -257
-213 -464 -311 -659 -311 -151 0 -242 37 -430 174 -459 335 -888 498 -1346
513 -320 10 -554 -39 -820 -171 -103 -51 -256 -148 -322 -204 -18 -15 -41 -34
-50 -41 -17 -13 -18 37 -18 1023 l0 1036 280 2 280 3 -377 378 -378 377 -380
-380z m4825 -3920 l0 -1540 -265 0 -265 0 0 1304 0 1304 88 70 c86 68 332 293
401 366 19 20 36 36 38 36 2 0 3 -693 3 -1540z m-2868 1489 l78 -12 0 -1509 0
-1508 -265 0 -265 0 0 1515 0 1514 33 5 c101 17 287 15 419 -5z m-852 -1584
l0 -1445 -265 0 -265 0 0 1211 0 1212 56 69 c63 78 168 186 236 241 53 43 219
156 231 157 4 0 7 -650 7 -1445z m1493 1354 c98 -55 166 -99 290 -187 l77 -55
0 -1279 0 -1278 -265 0 -265 0 0 1440 0 1440 36 -15 c20 -8 77 -38 127 -66z
m1297 -1604 l0 -1195 -265 0 -265 0 0 1176 0 1176 53 -9 c28 -4 111 -7 182 -7
108 2 144 6 210 27 44 13 81 25 83 26 1 0 2 -537 2 -1194z"/>
<path d="M3030 8487 c0 -7 45 -119 100 -250 108 -256 108 -258 54 -293 -19
-13 -38 -15 -81 -11 l-56 6 7 -46 c3 -25 6 -54 6 -63 0 -14 13 -18 73 -23 118
-10 182 10 230 75 14 19 237 597 237 615 0 2 -41 2 -92 1 l-91 -3 -47 -164
c-26 -91 -49 -160 -52 -155 -2 5 -26 80 -53 167 l-49 157 -93 0 c-69 0 -93 -3
-93 -13z"/>
<path d="M8120 3884 c0 -4 36 -56 81 -116 44 -61 78 -115 76 -122 -3 -7 -41
-64 -86 -128 -45 -64 -81 -119 -81 -122 0 -3 43 -6 95 -6 l95 0 43 58 c23 32
49 68 58 81 15 24 15 24 63 -57 l48 -82 104 0 c57 0 104 3 104 6 0 3 -39 61
-86 130 l-86 125 18 27 c10 15 46 66 81 114 35 48 63 90 63 93 0 3 -45 5 -100
5 l-100 0 -46 -70 c-53 -79 -46 -80 -100 17 l-29 53 -107 0 c-60 0 -108 -3
-108 -6z"/>
</g>
</svg>
