<?xml version="1.0" standalone="no"?>
<!DOCTYPE svg PUBLIC "-//W3C//DTD SVG 20010904//EN"
 "http://www.w3.org/TR/2001/REC-SVG-20010904/DTD/svg10.dtd">
<svg version="1.0" xmlns="http://www.w3.org/2000/svg"
 width="1024.000000pt" height="1024.000000pt" viewBox="0 0 1024.000000 1024.000000"
 preserveAspectRatio="xMidYMid meet">
<metadata>
Created by potrace 1.15, written by Peter Selinger 2001-2017
</metadata>
<g transform="translate(0.000000,1024.000000) scale(0.100000,-0.100000)"
fill="#FFFFFF" stroke="none">
<path d="M1280 5120 l0 -3150 425 0 425 0 0 195 0 195 -230 0 -230 0 0 2760 0
2760 230 0 230 0 0 195 0 195 -425 0 -425 0 0 -3150z"/>
<path d="M8110 8075 l0 -195 230 0 230 0 0 -2760 0 -2760 -230 0 -230 0 0
-195 0 -195 425 0 425 0 0 3150 0 3150 -425 0 -425 0 0 -195z"/>
<path d="M4600 7285 l0 -525 520 0 520 0 0 525 0 525 -520 0 -520 0 0 -525z"/>
<path d="M3219 7731 c-64 -12 -128 -43 -163 -77 -33 -33 -71 -111 -81 -165
l-7 -36 122 -9 c106 -8 123 -7 127 6 17 54 40 93 64 106 87 44 183 -28 158
-119 -12 -43 -63 -95 -193 -196 -139 -108 -209 -184 -250 -273 -19 -40 -37
-88 -40 -105 l-5 -33 374 0 375 0 0 100 0 100 -197 0 -198 0 25 21 c14 11 75
58 137 105 167 126 213 191 221 309 3 62 1 76 -25 125 -31 60 -95 111 -161
130 -51 14 -227 21 -283 11z"/>
<path d="M6828 7523 c-101 -119 -204 -242 -231 -272 l-47 -56 2 -100 3 -100
228 -3 227 -2 0 -80 0 -80 105 0 105 0 0 80 0 79 58 3 57 3 3 92 3 92 -58 3
-58 3 -3 278 -2 277 -105 0 -104 0 -183 -217z m178 -330 c-4 -10 -35 -13 -122
-13 -64 0 -114 4 -112 9 2 5 55 70 118 145 l115 136 3 -132 c1 -73 0 -138 -2
-145z"/>
<path d="M2780 5190 l0 -520 525 0 525 0 0 520 0 520 -525 0 -525 0 0 -520z"/>
<path d="M4600 5190 l0 -520 520 0 520 0 0 520 0 520 -520 0 -520 0 0 -520z"/>
<path d="M6863 5639 c-117 -15 -197 -69 -241 -162 -12 -26 -22 -50 -22 -55 0
-4 52 -17 115 -28 l115 -20 10 37 c14 51 52 79 105 79 68 0 107 -61 80 -126
-17 -40 -54 -66 -99 -67 -31 -1 -35 -4 -40 -36 -3 -20 -6 -57 -6 -83 l0 -46
59 1 c72 2 110 -21 129 -79 19 -56 7 -111 -33 -151 -27 -27 -41 -33 -78 -33
-56 0 -90 25 -113 86 -17 44 -18 45 -53 40 -20 -3 -73 -11 -118 -17 -51 -7
-83 -16 -83 -23 0 -30 56 -119 97 -155 68 -61 124 -76 278 -76 114 0 136 3
180 23 111 51 175 148 175 265 0 104 -40 168 -126 199 -19 6 -34 14 -34 18 0
3 16 16 35 29 41 28 85 111 85 161 0 51 -48 140 -89 168 -69 45 -208 67 -328
51z"/>
<path d="M2782 3098 l3 -523 523 -3 522 -2 0 525 0 525 -525 0 -525 0 2 -522z"/>
<path d="M6410 3095 l0 -525 523 2 522 3 3 523 2 522 -525 0 -525 0 0 -525z"/>
<path d="M5105 3495 c-45 -66 -112 -117 -203 -155 l-67 -29 -3 -100 c-3 -99
-3 -99 20 -94 40 10 170 72 204 98 17 13 34 21 38 18 3 -4 6 -138 6 -300 l0
-293 120 0 120 0 0 455 0 455 -98 0 -99 0 -38 -55z"/>
</g>
</svg>
