<?xml version="1.0" standalone="no"?>
<!DOCTYPE svg PUBLIC "-//W3C//DTD SVG 20010904//EN"
 "http://www.w3.org/TR/2001/REC-SVG-20010904/DTD/svg10.dtd">
<svg version="1.0" xmlns="http://www.w3.org/2000/svg"
 width="1024.000000pt" height="1024.000000pt" viewBox="0 0 1024.000000 1024.000000"
 preserveAspectRatio="xMidYMid meet">
<metadata>
Created by potrace 1.15, written by Peter Selinger 2001-2017
</metadata>
<g transform="translate(0.000000,1024.000000) scale(0.100000,-0.100000)"
fill="#FFFFFF" stroke="none">
<path d="M1753 8419 l-473 -544 0 -1362 0 -1363 1368 0 1367 1 473 536 472
536 0 1364 0 1363 -597 0 c-329 0 -944 3 -1368 6 l-770 7 -472 -544z m2120
237 c83 -41 67 -95 -45 -151 -231 -114 -635 -90 -568 34 26 49 121 97 247 125
98 22 314 17 366 -8z m-971 -268 c185 -55 19 -196 -271 -230 -280 -32 -425 74
-232 171 139 71 373 98 503 59z m-848 -878 c203 -76 271 -328 136 -499 -86
-108 -246 -147 -370 -90 -78 36 -124 80 -160 151 -25 51 -30 73 -30 133 0 39
7 92 16 118 28 82 123 170 214 198 49 14 138 9 194 -11z m1431 -12 c53 -27
123 -95 148 -144 70 -138 18 -327 -115 -410 -54 -35 -150 -57 -207 -49 -107
15 -205 85 -252 181 -20 41 -24 64 -24 139 0 81 3 95 30 144 37 66 101 124
169 151 72 29 182 23 251 -12z m1069 -123 c28 -28 40 -97 39 -220 -2 -228 -75
-445 -149 -445 -76 0 -94 267 -34 488 42 151 99 222 144 177z m-2481 -1275
c65 -31 118 -80 152 -141 27 -49 30 -62 30 -149 0 -80 -4 -102 -23 -138 -35
-66 -88 -119 -150 -149 -75 -37 -191 -39 -264 -6 -62 29 -128 91 -158 150 -37
73 -41 193 -7 265 61 134 174 204 314 193 34 -2 81 -14 106 -25z m1414 -5
c189 -93 236 -342 92 -499 -67 -74 -129 -100 -234 -101 -68 0 -89 4 -137 28
-108 53 -178 166 -178 287 0 233 247 387 457 285z"/>
<path d="M5462 4853 l-511 -588 -1 -1492 0 -1493 1488 0 1487 1 517 587 518
587 0 1486 0 1486 -907 6 c-500 4 -1172 7 -1494 7 l-586 0 -511 -587z m1730
126 c70 -15 106 -35 120 -65 35 -76 -147 -168 -388 -196 -215 -25 -384 35
-330 117 41 62 148 111 307 140 93 17 222 18 291 4z m1123 -1044 c38 -79 18
-317 -39 -440 -27 -59 -58 -84 -81 -65 -58 48 -49 322 16 469 40 91 71 102
104 36z m-2440 -185 c238 -115 237 -454 -1 -571 -70 -35 -198 -35 -268 0 -66
33 -123 91 -154 159 -75 164 11 363 181 424 71 25 176 20 242 -12z m1365 11
c78 -30 134 -82 172 -158 28 -56 32 -77 32 -139 0 -184 -155 -326 -338 -312
-247 20 -372 294 -229 501 75 108 237 156 363 108z m1274 -171 c33 -83 14
-318 -35 -430 -38 -86 -76 -103 -106 -47 -14 26 -18 56 -17 152 0 127 19 225
56 300 28 56 37 65 63 65 17 0 27 -10 39 -40z m195 -335 c8 -17 17 -70 19
-120 7 -150 -37 -332 -92 -384 -47 -45 -76 2 -83 134 -13 235 96 493 156 370z
m-2143 -200 c240 -107 245 -450 8 -566 -58 -29 -78 -33 -139 -33 -124 1 -231
69 -286 180 -34 69 -35 198 -1 266 79 160 258 225 418 153z m-694 -695 c113
-53 181 -162 181 -286 0 -62 -5 -83 -32 -138 -116 -236 -446 -235 -563 1 -53
109 -43 221 29 326 79 114 256 159 385 97z m1354 15 c78 -23 143 -80 184 -159
30 -59 34 -77 34 -140 0 -281 -338 -422 -537 -223 -112 112 -121 301 -21 420
85 101 215 140 340 102z"/>
</g>
</svg>
