<?xml version="1.0" encoding="utf-8"?>
<!-- Generator: Adobe Illustrator 19.0.0, SVG Export Plug-In . SVG Version: 6.00 Build 0)  -->
<svg version="1.1" id="Layer_1" xmlns="http://www.w3.org/2000/svg" xmlns:xlink="http://www.w3.org/1999/xlink" x="0px" y="0px"
	 viewBox="0 0 640 640" enable-background="new 0 0 640 640" xml:space="preserve" fill="#066D4F">
<g id="XMLID_294_">
	<path id="XMLID_373_" d="M232.3,0H57.3C26.2,0,1,25.2,1,56.3v174.9C1,262.3,26.2,287,57.3,287h174.9c31.1,0,55.7-24.7,55.7-55.8
		V56.3C288,25.2,263.3,0,232.3,0z M252.2,165.2c-5.7,5.6-13.4,8.8-22.1,8.8H175v54.9c0,17.2-13.5,31.2-30.7,31.2
		c-8.6,0-16-3.5-21.6-9.1c-5.6-5.7-8.7-13.4-8.7-22.1V174H59.5c-17.2,0-31.2-13.6-31.2-30.8c0-8.6,3.5-15.9,9.1-21.6
		c5.7-5.6,13.4-8.6,22.1-8.6H114V58.3c0-17.2,13.8-31.2,31-31.2c8.6,0,15.8,3.5,21.5,9.1c5.6,5.7,8.6,13.4,8.6,22.1V113h55.1
		c17.2,0,31.2,13.5,31.2,30.7C261.3,152.4,257.8,159.6,252.2,165.2z"/>
	<path id="XMLID_369_" d="M583.8,0H408.9C377.8,0,352,25.2,352,56.3v174.9c0,31.1,25.8,55.8,56.9,55.8h174.9
		c31.1,0,55.2-24.7,55.2-55.8V56.3C639,25.2,614.9,0,583.8,0z M603.7,165.3c-5.7,5.6-13.4,8.7-22.1,8.7H411
		c-17.2,0-31.2-13.6-31.2-30.8c0-8.6,3.5-15.9,9.1-21.6c5.7-5.6,13.4-8.6,22.1-8.6h170.7c17.2,0,31.2,13.5,31.2,30.7
		C612.8,152.3,609.4,159.6,603.7,165.3z"/>
	<path id="XMLID_375_" d="M232.3,351H57.3C26.2,351,1,376.7,1,407.8v174.9C1,613.9,26.2,640,57.3,640h174.9
		c31.1,0,55.7-26.1,55.7-57.2V407.8C288,376.7,263.3,351,232.3,351z M145.1,380.2c16.4,0,29.6,13.3,29.6,29.6
		c0,16.4-13.3,29.6-29.6,29.6c-16.4,0-29.7-13.3-29.7-29.6C115.5,393.4,128.8,380.2,145.1,380.2z M145.1,615.2
		c-16.4,0-29.7-13.3-29.7-29.6c0-16.4,13.3-29.6,29.7-29.6c16.4,0,29.6,13.3,29.6,29.6C174.8,601.9,161.5,615.2,145.1,615.2z
		 M252.2,516.5c-5.7,5.6-13.4,8.5-22.1,8.5H59.5c-17.2,0-31.2-13.3-31.2-30.5c0-8.6,3.5-16.6,9.1-22.2c5.7-5.7,13.4-9.3,22.1-9.3
		h170.7c17.2,0,31.2,14.1,31.2,31.3C261.3,502.9,257.8,510.9,252.2,516.5z"/>
	<path id="XMLID_378_" d="M583.8,351H408.9c-31.1,0-56.9,25.7-56.9,56.8v174.9c0,31.1,25.8,57.2,56.9,57.2h174.9
		c31.1,0,55.2-26.1,55.2-57.2V407.8C639,376.7,614.9,351,583.8,351z M578.7,577.5c-6.1,6.1-14.1,9.1-22.1,9.1c-8,0-15.9-3-22-9.1
		l-38.3-38.3L458,577.5c-12.2,12.2-31.9,12.2-44.1,0c-6.1-6.1-9.1-14-9.1-22s3-16,9.1-22.1l38.3-38.3L414,456.8
		c-12.2-12.2-12.2-31.9,0-44.1c6.1-6.1,14.1-9.1,22.1-9.1c8,0,15.9,3,22,9.1l38.3,38.3l38.3-38.3c12.2-12.2,31.9-12.2,44.1,0
		c6.1,6.1,9.1,14,9.1,22c0,8-3,16-9.1,22.1l-38.3,38.3l38.3,38.3C590.9,545.6,590.9,565.3,578.7,577.5z"/>
</g>
<g id="XMLID_1_">
</g>
<g id="XMLID_2_">
</g>
<g id="XMLID_3_">
</g>
<g id="XMLID_4_">
</g>
<g id="XMLID_5_">
</g>
<g id="XMLID_6_">
</g>
<g id="XMLID_7_">
</g>
<g id="XMLID_8_">
</g>
<g id="XMLID_9_">
</g>
<g id="XMLID_10_">
</g>
<g id="XMLID_11_">
</g>
<g id="XMLID_12_">
</g>
<g id="XMLID_13_">
</g>
<g id="XMLID_14_">
</g>
<g id="XMLID_15_">
</g>
</svg>
