<?xml version="1.0" encoding="iso-8859-1"?>
<!-- Generator: Adobe Illustrator 19.0.0, SVG Export Plug-In . SVG Version: 6.00 Build 0)  -->
<svg version="1.1" id="Layer_1" xmlns="http://www.w3.org/2000/svg" xmlns:xlink="http://www.w3.org/1999/xlink" x="0px" y="0px"
	 viewBox="0 0 512 512" style="enable-background:new 0 0 512 512;" xml:space="preserve" fill="#ffffff">
<g>
	<g>
		<g>
			<path d="M362.667,202.688c0-69.376-83.051-128-181.333-128S0,133.312,0,202.688c0,35.584,22.976,73.109,57.899,95.531
				c-4.715,12.523-20.331,33.003-31.787,45.589c-0.213,0.235-0.427,0.491-0.619,0.747c-2.709,3.157-4.16,7.061-4.16,11.157
				c0,9.707,8.128,17.6,18.091,17.6c0.683,0,76.032-9.643,115.584-43.968c9.131,0.896,17.813,1.344,26.325,1.344
				C279.616,330.688,362.667,272.064,362.667,202.688z M181.333,309.333c-9.216,0-18.603-0.576-28.779-1.749
				c-3.221-0.384-6.379,0.725-8.661,2.944c-23.851,23.168-73.451,35.691-95.275,39.893c11.349-13.461,31.083-39.275,31.957-56.896
				c0.192-4.032-1.899-7.829-5.44-9.813c-32.192-18.069-53.803-50.624-53.803-81.024c0-56.832,74.773-106.667,160-106.667
				s160,49.813,160,106.645C341.333,259.499,266.56,309.333,181.333,309.333z"/>
			<path d="M454.123,362.197C489.045,339.776,512,302.251,512,266.667c0-53.589-51.2-103.403-124.544-121.173
				c-5.739-1.408-11.499,2.112-12.885,7.851c-1.387,5.739,2.112,11.499,7.851,12.885c62.699,15.189,108.245,57.429,108.245,100.437
				c0,30.379-21.632,62.955-53.824,81.024c-3.541,1.963-5.632,5.781-5.44,9.813c0.811,16.619,18.112,40.363,31.915,56.811
				c-22.699-4.352-71.595-16.832-95.232-39.808c-2.304-2.219-5.504-3.349-8.64-2.944c-10.176,1.173-19.584,1.749-28.779,1.749
				c-35.392,0-69.397-8.299-98.368-24.043c-5.184-2.816-11.648-0.875-14.464,4.288c-2.816,5.163-0.896,11.648,4.288,14.464
				c32.085,17.429,69.611,26.645,108.544,26.645c8.512,0,17.173-0.448,26.325-1.344c39.552,34.347,114.901,43.989,115.584,43.989
				c9.984,0,18.091-7.893,18.112-17.621c0-4.437-1.749-8.725-4.779-11.904C474.773,395.584,458.901,374.741,454.123,362.197z"/>
		</g>
	</g>
</g>
</svg>
