<?xml version="1.0" standalone="no"?>
<!DOCTYPE svg PUBLIC "-//W3C//DTD SVG 20010904//EN"
 "http://www.w3.org/TR/2001/REC-SVG-20010904/DTD/svg10.dtd">
<svg version="1.0" xmlns="http://www.w3.org/2000/svg"
 width="1024.000000pt" height="1024.000000pt" viewBox="0 0 1024.000000 1024.000000"
 preserveAspectRatio="xMidYMid meet">
<metadata>
Created by potrace 1.15, written by Peter Selinger 2001-2017
</metadata>
<g transform="translate(0.000000,1024.000000) scale(0.100000,-0.100000)"
fill="#1265C7" stroke="none">
<path d="M6592 8136 l-312 -180 2 -365 3 -365 290 -169 c160 -92 299 -173 310
-178 17 -9 70 18 330 168 l310 179 3 365 2 365 -97 56 c-54 31 -195 112 -313
180 l-216 125 -312 -181z"/>
<path d="M1593 6899 l-313 -181 0 -362 0 -362 63 -36 c34 -20 175 -101 314
-181 l252 -145 303 175 c167 96 309 180 316 185 9 8 12 94 12 367 l0 357 -311
179 c-171 99 -314 181 -317 182 -4 1 -148 -79 -319 -178z"/>
<path d="M4450 6901 l-305 -177 -3 -366 -2 -366 304 -176 c167 -96 308 -177
314 -178 5 -2 149 78 321 176 l311 179 0 363 0 362 -304 176 c-168 97 -311
178 -318 180 -7 2 -150 -76 -318 -173z"/>
<path d="M5873 6898 l-313 -181 0 -361 0 -361 308 -177 c169 -97 312 -178 317
-180 6 -2 151 78 323 177 l312 180 0 361 0 361 -314 182 c-173 99 -316 181
-318 180 -2 0 -144 -82 -315 -181z"/>
<path d="M2307 5663 l-307 -178 0 -365 0 -365 300 -174 c166 -95 308 -175 318
-177 9 -2 154 76 322 174 l305 177 0 365 0 365 -305 177 c-168 97 -310 177
-315 177 -6 1 -148 -79 -318 -176z"/>
<path d="M3730 5661 l-305 -177 0 -364 0 -364 308 -178 c170 -98 312 -178 316
-178 4 0 147 80 317 178 l309 178 0 364 0 363 -309 179 c-170 98 -314 178
-320 177 -6 0 -148 -80 -316 -178z"/>
<path d="M6588 5662 l-308 -177 0 -365 0 -365 311 -179 c243 -140 314 -177
329 -170 10 5 151 86 314 179 l296 170 -1 365 0 365 -308 178 c-170 97 -313
177 -318 177 -4 0 -146 -80 -315 -178z"/>
<path d="M8017 5663 l-307 -178 0 -365 0 -366 300 -173 c165 -95 308 -174 317
-177 10 -2 155 76 323 174 l305 177 0 365 0 364 -305 177 c-168 98 -310 178
-315 178 -6 1 -149 -79 -318 -176z"/>
<path d="M1593 4426 l-313 -180 0 -362 0 -362 314 -181 314 -182 316 183 316
182 0 358 0 358 -37 24 c-41 26 -544 316 -578 333 -17 8 -72 -20 -332 -171z"/>
<path d="M2308 3192 l-307 -177 -1 -366 0 -367 305 -176 c168 -97 311 -176
317 -176 6 0 150 80 320 178 l308 177 -3 364 -2 364 -310 178 c-170 99 -312
179 -315 179 -3 -1 -143 -81 -312 -178z"/>
</g>
</svg>
