<?xml version="1.0" standalone="no"?>
<!DOCTYPE svg PUBLIC "-//W3C//DTD SVG 20010904//EN"
 "http://www.w3.org/TR/2001/REC-SVG-20010904/DTD/svg10.dtd">
<svg version="1.0" xmlns="http://www.w3.org/2000/svg"
 width="1024.000000pt" height="1024.000000pt" viewBox="0 0 1024.000000 1024.000000"
 preserveAspectRatio="xMidYMid meet">
<metadata>
Created by potrace 1.15, written by Peter Selinger 2001-2017
</metadata>
<g transform="translate(0.000000,1024.000000) scale(0.100000,-0.100000)"
fill="#1265C7" stroke="none">
<path d="M2195 8397 c-857 -494 -870 -503 -892 -547 l-23 -44 0 -993 c0 -1081
-2 -1034 57 -1083 16 -14 411 -245 878 -515 812 -468 852 -490 900 -490 48 0
88 22 905 493 470 272 867 506 883 520 15 14 32 42 37 61 14 50 13 1973 0
2023 -6 21 -23 49 -38 64 -15 14 -412 248 -882 520 -817 471 -857 494 -905
494 -48 0 -88 -22 -920 -503z"/>
<path d="M6220 8406 c-470 -272 -867 -506 -882 -520 -15 -15 -32 -43 -38 -64
-13 -50 -14 -1973 0 -2023 5 -19 22 -47 37 -61 16 -14 413 -248 883 -520 817
-471 857 -493 905 -493 48 0 88 22 900 490 467 270 862 501 878 515 59 49 57
2 57 1083 l0 993 -22 44 c-23 44 -36 53 -893 547 -832 481 -872 503 -920 503
-48 -1 -89 -23 -905 -494z"/>
<path d="M5055 5504 c-16 -8 -410 -234 -874 -502 -605 -349 -849 -495 -865
-517 l-21 -30 -3 -1018 c-3 -1123 -7 -1050 60 -1100 30 -22 1618 -940 1695
-980 37 -20 104 -22 136 -6 108 56 1698 978 1719 997 14 13 31 36 37 51 8 18
11 326 9 1041 l-3 1015 -22 30 c-15 22 -254 165 -843 505 -452 261 -845 487
-872 503 -57 31 -108 35 -153 11z"/>
</g>
</svg>
