<?xml version="1.0" standalone="no"?>
<!DOCTYPE svg PUBLIC "-//W3C//DTD SVG 20010904//EN"
 "http://www.w3.org/TR/2001/REC-SVG-20010904/DTD/svg10.dtd">
<svg version="1.0" xmlns="http://www.w3.org/2000/svg"
 width="1024.000000pt" height="1024.000000pt" viewBox="0 0 1024.000000 1024.000000"
 preserveAspectRatio="xMidYMid meet">
<metadata>
Created by potrace 1.15, written by Peter Selinger 2001-2017
</metadata>
<g transform="translate(0.000000,1024.000000) scale(0.100000,-0.100000)"
fill="#ffffff" stroke="none">
<path d="M5565 7675 c-188 -41 -386 -182 -476 -340 -17 -30 -111 -133 -234
-255 l-205 -205 -227 227 c-331 329 -295 328 -621 5 l-232 -231 -228 226
c-193 192 -233 228 -269 237 -75 20 -153 -15 -184 -83 -17 -38 -19 -72 -19
-407 l0 -367 -128 -4 c-140 -4 -174 -15 -216 -71 -21 -28 -21 -33 -24 -814
l-2 -786 -608 -1026 c-592 -1001 -607 -1027 -607 -1078 0 -58 20 -93 75 -131
l33 -22 1646 2 c1628 3 1646 3 1673 23 41 30 72 98 65 146 -4 29 -169 315
-611 1063 l-606 1023 0 780 0 780 -23 33 c-41 61 -76 74 -219 78 l-128 4 0
161 0 161 153 -151 c164 -163 183 -174 264 -158 32 6 72 41 271 238 l232 231
233 -231 c198 -198 237 -232 270 -238 80 -15 101 -3 247 141 l137 134 12 -42
c38 -129 130 -268 239 -361 67 -57 210 -130 302 -154 99 -26 273 -23 374 5
132 38 229 95 327 192 94 93 144 170 185 285 l27 76 136 -135 c113 -112 142
-135 174 -141 83 -16 104 -1 350 243 l227 226 233 -231 c201 -200 237 -232
270 -239 78 -14 110 6 270 164 l147 146 -2 -379 -3 -380 -137 -5 c-148 -5
-166 -12 -212 -74 -21 -27 -21 -28 -21 -1499 l0 -1472 22 -70 c55 -175 199
-314 374 -360 69 -19 199 -19 268 0 190 50 346 213 386 402 12 57 15 297 15
1507 0 1423 0 1440 -20 1480 -36 72 -56 80 -215 86 l-140 5 -5 600 c-4 448 -8
605 -17 621 -21 37 -71 72 -112 79 -72 12 -108 -14 -341 -249 -118 -119 -220
-216 -225 -216 -6 0 -112 101 -234 225 -322 324 -285 324 -609 2 l-232 -232
-201 200 c-110 110 -217 225 -236 255 -151 235 -379 361 -648 359 -55 0 -127
-6 -160 -14z m241 -306 c135 -25 258 -120 316 -246 56 -123 49 -284 -18 -398
-40 -69 -114 -135 -192 -173 -95 -45 -213 -55 -308 -24 -161 51 -280 189 -302
350 -31 228 115 440 338 488 71 16 94 16 166 3z m-2934 -1388 c3 -164 5 -182
24 -208 73 -98 195 -98 268 0 19 26 21 44 24 208 l3 179 30 0 29 0 0 -725 -1
-724 209 -353 210 -353 -319 -3 c-176 -1 -462 -1 -638 0 l-318 3 199 335 c109
184 203 346 209 359 6 15 10 288 9 736 0 391 3 714 6 718 4 4 17 7 30 7 22 0
22 -1 26 -179z m5398 -737 c0 -428 2 -490 16 -520 48 -100 201 -112 268 -21
20 28 21 43 26 525 l5 497 28 3 27 3 0 -705 0 -706 -215 0 -215 0 0 705 0 705
30 0 30 0 0 -486z"/>
</g>
</svg>
