<?xml version="1.0" standalone="no"?>
<!DOCTYPE svg PUBLIC "-//W3C//DTD SVG 20010904//EN"
 "http://www.w3.org/TR/2001/REC-SVG-20010904/DTD/svg10.dtd">
<svg version="1.0" xmlns="http://www.w3.org/2000/svg"
 width="240.000000pt" height="240.000000pt" viewBox="0 0 240.000000 240.000000"
 preserveAspectRatio="xMidYMid meet">
<metadata>
Created by potrace 1.15, written by Peter Selinger 2001-2017
</metadata>
<g transform="translate(0.000000,240.000000) scale(0.100000,-0.100000)"
fill="#1265C7" stroke="none">
<path d="M973 2180 c-292 -67 -539 -264 -673 -535 -83 -166 -113 -330 -98
-535 24 -341 238 -654 553 -810 162 -81 226 -94 445 -94 219 0 283 13 445 94
197 97 358 258 455 455 81 162 94 226 94 445 0 219 -13 283 -94 445 -125 253
-368 454 -635 526 -115 32 -375 36 -492 9z m-64 -387 c60 -16 143 -55 234
-110 l57 -34 58 35 c150 91 310 144 390 130 20 -3 55 -17 77 -29 193 -110 62
-483 -294 -835 -288 -285 -602 -426 -752 -338 -48 28 -82 80 -93 140 -14 80
39 240 130 390 l35 58 -34 58 c-125 207 -161 364 -106 461 51 92 147 116 298
74z m813 -720 c24 -27 68 -139 84 -212 24 -116 -6 -202 -85 -249 -75 -44 -198
-31 -336 34 -55 26 -69 43 -59 69 13 34 40 36 106 6 258 -117 364 -11 247 248
-34 74 -36 96 -11 110 25 15 37 13 54 -6z"/>
<path d="M744 1723 c-97 -20 -89 -183 20 -377 21 -37 41 -66 45 -64 4 2 38 38
75 81 37 43 105 110 149 149 45 39 83 75 85 79 4 11 -121 79 -192 105 -64 23
-146 35 -182 27z"/>
<path d="M1533 1716 c-147 -37 -340 -163 -513 -336 -133 -133 -225 -257 -285
-385 -111 -234 -69 -351 113 -315 55 11 216 83 256 115 19 14 18 16 -25 52
-71 60 -170 157 -181 176 -13 24 -1 55 23 62 16 5 36 -8 92 -62 40 -38 98 -90
129 -117 l58 -48 85 72 c47 40 116 107 152 149 37 42 76 86 87 98 l19 22 -49
58 c-26 32 -79 90 -117 130 -74 77 -82 106 -30 119 23 6 35 -3 97 -67 40 -41
89 -94 110 -119 36 -44 38 -44 52 -25 31 41 94 182 110 243 37 150 -31 216
-183 178z m-269 -452 c36 -37 36 -91 0 -128 -58 -57 -154 -17 -154 64 0 81 96
121 154 64z"/>
</g>
</svg>
