<?xml version="1.0" standalone="no"?>
<!DOCTYPE svg PUBLIC "-//W3C//DTD SVG 20010904//EN"
 "http://www.w3.org/TR/2001/REC-SVG-20010904/DTD/svg10.dtd">
<svg version="1.0" xmlns="http://www.w3.org/2000/svg"
 width="870.000000pt" height="980.000000pt" viewBox="0 0 870.000000 980.000000"
 preserveAspectRatio="xMidYMid meet">
<metadata>
Created by potrace 1.15, written by Peter Selinger 2001-2017
</metadata>
<g transform="translate(0.000000,980.000000) scale(0.100000,-0.100000)"
fill="#066d4f" stroke="none">
<path d="M4895 9782 c-92 -35 -1356 -567 -1540 -647 -110 -48 -206 -89 -212
-92 -7 -3 -13 -12 -13 -21 0 -20 200 -216 417 -411 l172 -154 -122 -116 c-67
-65 -250 -238 -407 -385 -157 -148 -294 -277 -305 -288 -35 -34 155 54 1434
659 113 53 114 54 95 74 -19 21 -378 311 -526 424 -43 33 -78 65 -78 72 0 21
112 112 500 406 358 270 602 458 624 478 18 16 1 17 -39 1z"/>
<path d="M1721 7654 c-436 -728 -1225 -2112 -1379 -2419 -141 -284 -263 -669
-309 -980 -26 -176 -26 -1011 0 -1160 42 -239 128 -542 222 -780 253 -641 697
-1211 1263 -1619 426 -307 909 -518 1416 -621 279 -56 416 -69 721 -69 284 -1
398 8 642 50 977 166 1865 739 2410 1554 147 220 1036 1746 1303 2236 116 212
153 296 137 310 -23 22 -542 325 -1207 706 -389 223 -497 281 -509 273 -16
-10 -274 -442 -696 -1170 -419 -721 -685 -1166 -778 -1302 -27 -40 -95 -117
-152 -171 -179 -173 -394 -299 -662 -389 -128 -42 -140 -44 -306 -53 -217 -12
-461 1 -569 29 -454 122 -838 426 -1048 832 -157 303 -198 507 -179 877 18
356 68 472 622 1438 129 225 369 643 534 929 405 704 365 630 345 648 -55 49
-1691 1007 -1719 1007 -5 0 -50 -70 -102 -156z m353 -458 c156 -83 847 -479
915 -524 21 -15 -94 -233 -452 -852 -106 -184 -127 -215 -149 -218 -43 -5
-178 68 -920 498 -71 41 -128 77 -128 81 0 6 284 507 377 664 116 196 245 405
250 405 4 0 52 -24 107 -54z m4594 -2657 c140 -64 942 -530 942 -547 0 -4 -22
-50 -48 -102 -157 -308 -538 -942 -576 -956 -14 -5 -132 59 -616 336 -443 253
-422 241 -417 254 4 10 330 576 569 989 45 77 38 76 146 26z"/>
<path d="M8432 7678 c-17 -95 -48 -334 -82 -618 -42 -353 -90 -694 -99 -702
-12 -13 -107 17 -376 120 -242 93 -355 132 -378 132 -10 0 -7 -67 24 -505 35
-489 81 -1030 95 -1115 l6 -35 13 26 c17 32 37 109 140 549 46 195 91 388 101
428 l18 73 31 -7 c16 -3 154 -44 305 -91 151 -46 316 -95 365 -108 86 -22 90
-22 93 -5 10 60 -223 1898 -243 1918 -1 2 -8 -25 -13 -60z"/>
</g>
</svg>
