<?xml version="1.0" standalone="no"?>
<!DOCTYPE svg PUBLIC "-//W3C//DTD SVG 20010904//EN"
 "http://www.w3.org/TR/2001/REC-SVG-20010904/DTD/svg10.dtd">
<svg version="1.0" xmlns="http://www.w3.org/2000/svg"
 width="694.000000pt" height="980.000000pt" viewBox="0 0 694.000000 980.000000"
 preserveAspectRatio="xMidYMid meet">
<metadata>
Created by potrace 1.15, written by Peter Selinger 2001-2017
</metadata>
<g transform="translate(0.000000,980.000000) scale(0.100000,-0.100000)"
fill="#ffffff" stroke="none">
<path d="M88 9753 c-59 -62 -78 -100 -78 -161 0 -72 34 -131 92 -160 41 -21
68 -24 250 -32 111 -5 352 -10 534 -10 l331 0 7 -2494 c4 -1371 11 -2628 15
-2792 l8 -299 32 -95 c125 -370 461 -690 846 -805 50 -15 96 -29 103 -31 9 -3
12 -75 12 -318 l0 -314 -217 -4 c-297 -4 -280 7 -382 -253 -161 -408 -621
-1748 -621 -1807 0 -31 18 -59 78 -121 l56 -57 1141 0 c627 1 1211 5 1298 10
145 8 162 10 197 33 44 30 80 97 80 149 0 48 -94 335 -365 1113 -122 352 -234
676 -249 720 -19 58 -40 98 -76 142 l-49 61 -138 6 c-76 4 -181 9 -234 12
l-96 6 -7 60 c-3 34 -6 172 -6 307 l0 247 118 38 c235 77 389 170 553 335 149
150 240 292 300 471 26 78 31 114 39 258 8 141 30 1946 30 2501 0 167 1 173
19 160 10 -8 40 -31 67 -51 72 -56 268 -153 386 -193 131 -43 264 -58 413 -45
242 21 442 97 637 242 44 33 83 56 86 53 10 -9 16 -1425 6 -1425 -4 0 -55 46
-113 103 -144 140 -210 188 -265 194 -119 14 -226 -86 -226 -211 0 -53 2 -58
62 -128 99 -117 610 -624 648 -644 24 -13 57 -18 106 -19 l71 0 69 57 c87 71
590 578 632 637 57 79 40 181 -42 260 -29 29 -45 35 -90 39 -104 8 -113 3
-274 -148 -81 -77 -150 -140 -153 -140 -13 0 -19 430 -19 1304 -1 969 -8 1263
-35 1361 -53 197 -227 453 -412 608 -174 144 -305 211 -520 267 l-43 11 0 319
0 320 973 0 c534 0 1014 5 1066 10 87 8 96 11 128 42 48 46 63 79 63 138 0 61
-17 97 -77 162 l-46 48 -3336 0 -3337 0 -46 -47z m4192 -370 c3 -3 7 -142 8
-309 3 -248 1 -305 -10 -308 -7 -3 -59 -19 -114 -36 -399 -124 -709 -424 -858
-828 l-36 -98 -11 -1399 c-5 -770 -12 -1401 -14 -1403 -1 -2 -35 21 -74 51
-87 67 -258 157 -377 196 -208 69 -480 69 -687 0 -154 -51 -368 -171 -437
-244 -13 -14 -27 -25 -32 -25 -4 0 -8 995 -8 2211 l0 2210 1323 -7 c727 -4
1324 -9 1327 -11z m4 -1059 c3 -9 6 -104 6 -212 1 -108 5 -255 9 -325 9 -142
17 -159 91 -197 87 -45 158 -34 243 35 l55 46 7 334 c4 184 11 335 15 335 13
0 139 -49 183 -71 181 -91 341 -295 384 -491 25 -111 22 -368 -6 -471 -55
-209 -194 -378 -386 -473 -362 -178 -803 -95 -1030 194 -59 74 -131 214 -149
288 -35 142 -27 382 16 523 43 143 140 279 258 366 51 38 252 134 281 135 9 0
20 -7 23 -16z m-1609 -3454 c179 -46 333 -148 429 -284 95 -134 133 -236 147
-402 28 -331 -70 -579 -294 -746 -86 -63 -198 -122 -263 -136 l-41 -9 -5 316
c-6 351 -7 362 -71 418 -89 78 -204 60 -300 -46 l-37 -41 0 -324 0 -324 -37
10 c-73 19 -219 97 -285 153 -122 102 -216 250 -260 411 -31 115 -31 316 0
434 85 319 308 521 645 586 97 18 269 11 372 -16z m359 -3457 c301 -867 340
-983 328 -995 -9 -9 -250 -12 -921 -12 -500 -1 -912 2 -915 5 -10 10 464 1383
484 1403 19 19 106 23 490 25 l385 1 149 -427z"/>
</g>
</svg>
