<?xml version="1.0" standalone="no"?>
<!DOCTYPE svg PUBLIC "-//W3C//DTD SVG 20010904//EN"
 "http://www.w3.org/TR/2001/REC-SVG-20010904/DTD/svg10.dtd">
<svg version="1.0" xmlns="http://www.w3.org/2000/svg"
 width="980.000000pt" height="848.000000pt" viewBox="0 0 980.000000 848.000000"
 preserveAspectRatio="xMidYMid meet">
<metadata>
Created by potrace 1.15, written by Peter Selinger 2001-2017
</metadata>
<g transform="translate(0.000000,848.000000) scale(0.100000,-0.100000)"
fill="#066d4f" stroke="none">
<path d="M4222 8437 c-10 -17 -92 -153 -182 -302 -149 -247 -788 -1329 -959
-1624 -40 -68 -69 -126 -66 -130 4 -3 480 -8 1058 -11 l1052 -6 610 -82 c538
-73 2609 -345 3533 -464 281 -36 335 -45 343 -60 23 -42 22 -930 0 -967 -5 -8
-98 16 -322 83 -314 95 -1752 532 -2419 736 -195 60 -591 181 -880 269 l-525
160 -759 95 c-417 53 -762 93 -767 90 -4 -2 -18 -36 -31 -74 -19 -61 -20 -72
-8 -85 8 -8 560 -400 1226 -872 l1211 -858 854 -786 c1822 -1676 2311 -2118
2393 -2162 l33 -17 6 -122 c8 -147 7 -724 -2 -827 l-6 -74 -265 299 c-539 607
-1301 1481 -1410 1618 -120 149 -151 186 -255 301 -325 363 -550 580 -946 917
-266 226 -1393 1163 -2862 2380 l-408 338 -280 0 -280 0 7 23 c3 12 20 48 35
79 16 32 29 60 29 63 0 3 -670 5 -1490 5 l-1490 0 0 -83 0 -84 368 -6 c202 -4
850 -7 1440 -7 589 0 1072 -2 1072 -5 0 -4 -350 -599 -779 -1323 -1394 -2359
-2061 -3494 -2068 -3522 -3 -12 4 -20 24 -25 35 -11 7633 -19 8091 -10 l333 7
-49 92 c-27 50 -59 109 -72 131 -19 35 -13 30 51 -35 40 -41 318 -343 618
-670 300 -327 596 -647 658 -710 l113 -115 0 2951 0 2952 -32 6 c-40 7 -653
89 -1433 191 -954 125 -2153 283 -2430 320 -465 63 -458 62 -478 86 -21 26
-284 464 -632 1054 -299 505 -533 893 -545 900 -4 3 -17 -10 -28 -28z m1111
-2553 c147 -28 554 -147 1945 -570 1118 -340 1843 -557 2117 -635 115 -33 212
-64 216 -70 23 -38 23 -909 0 -909 -4 0 -81 39 -171 86 -91 48 -671 350 -1290
671 -619 322 -1237 644 -1375 715 -474 247 -990 507 -1109 558 -65 28 -209 78
-320 112 -111 33 -203 62 -205 64 -7 6 117 -8 192 -22z m-98 -184 l360 -99
820 -427 c2061 -1072 2977 -1542 3136 -1609 l67 -29 7 -215 c9 -236 0 -670
-13 -683 -5 -5 -195 125 -423 289 -228 163 -666 477 -974 698 -308 221 -663
476 -790 566 -428 308 -949 682 -1194 858 l-244 175 -586 293 c-322 161 -572
291 -556 288 17 -3 192 -51 390 -105z m-203 -191 c263 -122 636 -307 734 -364
123 -72 380 -245 719 -485 197 -140 2555 -1826 3015 -2157 53 -38 81 -52 96
-48 22 5 22 3 29 -201 9 -261 3 -670 -11 -684 -11 -11 -6 -16 -2098 1904
-1073 985 -1081 992 -1290 1140 -418 296 -1252 890 -1295 923 -24 18 -41 33
-38 33 4 0 66 -28 139 -61z"/>
</g>
</svg>
